<?xml version="1.0" encoding="utf-8"?>
<!-- Generator: Adobe Illustrator 23.0.6, SVG Export Plug-In . SVG Version: 6.00 Build 0)  -->
<svg version="1.1" id="Capa_1" xmlns="http://www.w3.org/2000/svg" xmlns:xlink="http://www.w3.org/1999/xlink" x="0px" y="0px"
	 viewBox="0 0 3600 80" style="enable-background:new 0 0 3600 80;" xml:space="preserve">
<style type="text/css">
	.st0{opacity:0.3;}
	.st1{fill:#FFFFFF;}
</style>
<image style="overflow:visible;" width="2048" height="1365" xlink:href="20A7DAEC.jpg"  transform="matrix(1 0 0 1 -8373.0078 -9921.5664)">
</image>
<g>
	<g class="st0">
		<path class="st1" d="M1986.6,50.4l0.1-0.2c4-5.3,7.9-13.7,7.9-13.8c1.1-2.2,1.7-4.7,1.7-7.3c0-8.7-6.6-15.7-14.6-15.7
			s-14.6,7-14.6,15.7c0,2.5,0.6,5,1.6,7.3c0,0.1,3.9,8.6,7.9,13.8l0.1,0.2l1.5,5.8c-0.3,0.3-0.4,0.7-0.4,1.1V58h-1.5
			c-0.1,0-0.2,0-0.2,0.1c-0.1,0.1-0.1,0.2-0.1,0.3l0.8,7.8c0,0.2,0.2,0.3,0.3,0.3h9.2c0.2,0,0.3-0.1,0.3-0.3l0.8-7.8
			c0-0.1,0-0.2-0.1-0.3c-0.1-0.1-0.2-0.1-0.2-0.1h-1.5v-0.7c0-0.5-0.2-1-0.6-1.3L1986.6,50.4L1986.6,50.4z M1984.9,58h-0.9
			c-0.1,0-0.3,0.1-0.3,0.3c0,0.2-0.2,0.3-0.3,0.3h-3.4c-0.2,0-0.3-0.1-0.3-0.3c0-0.2-0.2-0.3-0.3-0.3h-0.9v-0.7c0-0.5,0.4-1,0.9-1
			h4.7c0.5,0,0.9,0.4,0.9,1V58z M1985.8,65.7h-8.4l-0.7-6.8h2.2c0.2,0.3,0.5,0.6,0.9,0.6h3.5c0.4,0,0.7-0.2,0.9-0.6h2.2L1985.8,65.7
			z M1979.3,55.7c-0.2,0-0.4,0-0.6,0.1l-1.4-5.4h2.4l0.6,5.3H1979.3z M1981.6,14.4c7.6,0,13.8,6.6,13.8,14.8c0,2.4-0.5,4.8-1.6,6.9
			c0,0.1-3.8,8.3-7.7,13.5h-9.1c-3.9-5.2-7.6-13.4-7.7-13.5c-1-2.1-1.6-4.5-1.6-6.8C1967.8,21,1974,14.4,1981.6,14.4z M1980.9,55.6
			l-0.6-5.2h2.7l-0.3,5.2H1980.9z M1984,55.7h-0.7l0.3-5.3h2.4l-1.5,5.4C1984.3,55.7,1984.1,55.7,1984,55.7z"/>
		<path class="st1" d="M2047.9,43.7l0.1-0.2c4-5.3,7.9-13.7,7.9-13.8c1.1-2.2,1.7-4.7,1.7-7.3c0-8.7-6.6-15.7-14.6-15.7
			s-14.6,7-14.6,15.7c0,2.5,0.6,5,1.6,7.3c0,0.1,3.9,8.6,7.9,13.8l0.1,0.2l1.5,5.8c-0.3,0.3-0.4,0.7-0.4,1.1v0.7h-1.5
			c-0.1,0-0.2,0-0.2,0.1c-0.1,0.1-0.1,0.2-0.1,0.3l0.8,7.8c0,0.2,0.2,0.3,0.3,0.3h9.2c0.2,0,0.3-0.1,0.3-0.3l0.8-7.8
			c0-0.1,0-0.2-0.1-0.3s-0.2-0.1-0.2-0.1h-1.5v-0.7c0-0.5-0.2-1-0.6-1.3L2047.9,43.7L2047.9,43.7z M2046.2,51.3h-0.9
			c-0.1,0-0.3,0.1-0.3,0.3c0,0.2-0.2,0.3-0.3,0.3h-3.4c-0.2,0-0.3-0.1-0.3-0.3c0-0.2-0.2-0.3-0.3-0.3h-0.9v-0.7c0-0.5,0.4-1,0.9-1
			h4.7c0.5,0,0.9,0.4,0.9,1V51.3z M2047.2,59h-8.4l-0.7-6.8h2.2c0.2,0.3,0.5,0.6,0.9,0.6h3.5c0.4,0,0.7-0.2,0.9-0.6h2.2L2047.2,59z
			 M2040.7,49c-0.2,0-0.4,0-0.6,0.1l-1.4-5.4h2.4l0.6,5.3H2040.7z M2043,7.7c7.6,0,13.8,6.6,13.8,14.8c0,2.4-0.5,4.8-1.6,6.9
			c0,0.1-3.8,8.3-7.7,13.5h-9.1c-3.9-5.2-7.6-13.4-7.7-13.5c-1-2.1-1.6-4.5-1.6-6.8C2029.2,14.3,2035.4,7.7,2043,7.7z M2042.2,48.9
			l-0.6-5.2h2.7l-0.3,5.2H2042.2z M2045.4,49h-0.7l0.3-5.3h2.4l-1.5,5.4C2045.7,49,2045.5,49,2045.4,49z"/>
		<path class="st1" d="M2109.3,57.1l0.1-0.2c4-5.3,7.9-13.7,7.9-13.8c1.1-2.2,1.7-4.7,1.7-7.3c0-8.7-6.6-15.7-14.6-15.7
			c-8.1,0-14.6,7-14.6,15.7c0,2.5,0.6,5,1.6,7.3c0,0.1,3.9,8.6,7.9,13.8l0.1,0.2l1.5,5.8c-0.3,0.3-0.4,0.7-0.4,1.1v0.7h-1.5
			c-0.1,0-0.2,0-0.2,0.1c-0.1,0.1-0.1,0.2-0.1,0.3l0.8,7.8c0,0.2,0.2,0.3,0.3,0.3h9.2c0.2,0,0.3-0.1,0.3-0.3l0.8-7.8
			c0-0.1,0-0.2-0.1-0.3c-0.1-0.1-0.2-0.1-0.2-0.1h-1.5V64c0-0.5-0.2-1-0.6-1.3L2109.3,57.1L2109.3,57.1z M2107.6,64.7h-0.9
			c-0.1,0-0.3,0.1-0.3,0.3c0,0.2-0.2,0.3-0.3,0.3h-3.4c-0.2,0-0.3-0.1-0.3-0.3c0-0.2-0.2-0.3-0.3-0.3h-0.9V64c0-0.5,0.4-1,0.9-1h4.7
			c0.5,0,0.9,0.4,0.9,1V64.7z M2108.6,72.4h-8.4l-0.7-6.8h2.2c0.2,0.3,0.5,0.6,0.9,0.6h3.5c0.4,0,0.7-0.2,0.9-0.6h2.2L2108.6,72.4z
			 M2102,62.4c-0.2,0-0.4,0-0.6,0.1l-1.4-5.4h2.4l0.6,5.3H2102z M2104.4,21c7.6,0,13.8,6.6,13.8,14.8c0,2.4-0.5,4.8-1.6,6.9
			c0,0.1-3.8,8.3-7.7,13.5h-9.1c-3.9-5.2-7.6-13.4-7.7-13.5c-1-2.1-1.6-4.5-1.6-6.8C2090.6,27.7,2096.8,21,2104.4,21z M2103.6,62.3
			l-0.6-5.2h2.7l-0.3,5.2H2103.6z M2106.7,62.4h-0.7l0.3-5.3h2.4l-1.5,5.4C2107,62.4,2106.9,62.4,2106.7,62.4z"/>
		<path class="st1" d="M2170.7,50.4l0.1-0.2c4-5.3,7.9-13.7,7.9-13.8c1.1-2.2,1.7-4.7,1.7-7.3c0-8.7-6.6-15.7-14.6-15.7
			c-8.1,0-14.6,7-14.6,15.7c0,2.5,0.6,5,1.6,7.3c0,0.1,3.9,8.6,7.9,13.8l0.1,0.2l1.5,5.8c-0.3,0.3-0.4,0.7-0.4,1.1V58h-1.5
			c-0.1,0-0.2,0-0.2,0.1c-0.1,0.1-0.1,0.2-0.1,0.3l0.8,7.8c0,0.2,0.2,0.3,0.3,0.3h9.2c0.2,0,0.3-0.1,0.3-0.3l0.8-7.8
			c0-0.1,0-0.2-0.1-0.3c-0.1-0.1-0.2-0.1-0.2-0.1h-1.5v-0.7c0-0.5-0.2-1-0.6-1.3L2170.7,50.4L2170.7,50.4z M2169,58h-0.9
			c-0.1,0-0.3,0.1-0.3,0.3c0,0.2-0.2,0.3-0.3,0.3h-3.4c-0.2,0-0.3-0.1-0.3-0.3c0-0.2-0.2-0.3-0.3-0.3h-0.9v-0.7c0-0.5,0.4-1,0.9-1
			h4.7c0.5,0,0.9,0.4,0.9,1V58z M2169.9,65.7h-8.4l-0.7-6.8h2.2c0.2,0.3,0.5,0.6,0.9,0.6h3.5c0.4,0,0.7-0.2,0.9-0.6h2.2L2169.9,65.7
			z M2163.4,55.7c-0.2,0-0.4,0-0.6,0.1l-1.4-5.4h2.4l0.6,5.3H2163.4z M2165.8,14.4c7.6,0,13.8,6.6,13.8,14.8c0,2.4-0.5,4.8-1.6,6.9
			c0,0.1-3.8,8.3-7.7,13.5h-9.1c-3.9-5.2-7.6-13.4-7.7-13.5c-1-2.1-1.6-4.5-1.6-6.8C2152,21,2158.1,14.4,2165.8,14.4z M2165,55.6
			l-0.6-5.2h2.7l-0.3,5.2H2165z M2168.1,55.7h-0.7l0.3-5.3h2.4l-1.5,5.4C2168.4,55.7,2168.3,55.7,2168.1,55.7z"/>
		<path class="st1" d="M2234.5,43.7l0.1-0.2c4-5.3,7.9-13.7,7.9-13.8c1.1-2.2,1.7-4.7,1.7-7.3c0-8.7-6.6-15.7-14.6-15.7
			s-14.6,7-14.6,15.7c0,2.5,0.6,5,1.6,7.3c0,0.1,3.9,8.6,7.9,13.8l0.1,0.2l1.5,5.8c-0.3,0.3-0.4,0.7-0.4,1.1v0.7h-1.5
			c-0.1,0-0.2,0-0.2,0.1c-0.1,0.1-0.1,0.2-0.1,0.3l0.8,7.8c0,0.2,0.2,0.3,0.3,0.3h9.2c0.2,0,0.3-0.1,0.3-0.3l0.8-7.8
			c0-0.1,0-0.2-0.1-0.3c-0.1-0.1-0.2-0.1-0.2-0.1h-1.5v-0.7c0-0.5-0.2-1-0.6-1.3L2234.5,43.7L2234.5,43.7z M2232.8,51.3h-0.9
			c-0.1,0-0.3,0.1-0.3,0.3c0,0.2-0.2,0.3-0.3,0.3h-3.4c-0.2,0-0.3-0.1-0.3-0.3c0-0.2-0.2-0.3-0.3-0.3h-0.9v-0.7c0-0.5,0.4-1,0.9-1
			h4.7c0.5,0,0.9,0.4,0.9,1V51.3z M2233.8,59h-8.4l-0.7-6.8h2.2c0.2,0.3,0.5,0.6,0.9,0.6h3.5c0.4,0,0.7-0.2,0.9-0.6h2.2L2233.8,59z
			 M2227.3,49c-0.2,0-0.4,0-0.6,0.1l-1.4-5.4h2.4l0.6,5.3H2227.3z M2229.6,7.7c7.6,0,13.8,6.6,13.8,14.8c0,2.4-0.5,4.8-1.6,6.9
			c0,0.1-3.8,8.3-7.7,13.5h-9.1c-3.9-5.2-7.6-13.4-7.7-13.5c-1-2.1-1.6-4.5-1.6-6.8C2215.8,14.3,2222,7.7,2229.6,7.7z M2228.8,48.9
			l-0.6-5.2h2.7l-0.3,5.2H2228.8z M2232,49h-0.7l0.3-5.3h2.4l-1.5,5.4C2232.3,49,2232.1,49,2232,49z"/>
		<path class="st1" d="M2293.4,57.1l0.1-0.2c4-5.3,7.9-13.7,7.9-13.8c1.1-2.2,1.7-4.7,1.7-7.3c0-8.7-6.6-15.7-14.6-15.7
			s-14.6,7-14.6,15.7c0,2.5,0.6,5,1.6,7.3c0,0.1,3.9,8.6,7.9,13.8l0.1,0.2l1.5,5.8c-0.3,0.3-0.4,0.7-0.4,1.1v0.7h-1.5
			c-0.1,0-0.2,0-0.2,0.1c-0.1,0.1-0.1,0.2-0.1,0.3l0.8,7.8c0,0.2,0.2,0.3,0.3,0.3h9.2c0.2,0,0.3-0.1,0.3-0.3l0.8-7.8
			c0-0.1,0-0.2-0.1-0.3c-0.1-0.1-0.2-0.1-0.2-0.1h-1.5V64c0-0.5-0.2-1-0.6-1.3L2293.4,57.1L2293.4,57.1z M2291.7,64.7h-0.9
			c-0.1,0-0.3,0.1-0.3,0.3c0,0.2-0.2,0.3-0.3,0.3h-3.4c-0.2,0-0.3-0.1-0.3-0.3c0-0.2-0.2-0.3-0.3-0.3h-0.9V64c0-0.5,0.4-1,0.9-1h4.7
			c0.5,0,0.9,0.4,0.9,1V64.7z M2292.7,72.4h-8.4l-0.7-6.8h2.2c0.2,0.3,0.5,0.6,0.9,0.6h3.5c0.4,0,0.7-0.2,0.9-0.6h2.2L2292.7,72.4z
			 M2286.2,62.4c-0.2,0-0.4,0-0.6,0.1l-1.4-5.4h2.4l0.6,5.3H2286.2z M2288.5,21c7.6,0,13.8,6.6,13.8,14.8c0,2.4-0.5,4.8-1.6,6.9
			c0,0.1-3.8,8.3-7.7,13.5h-9.1c-3.9-5.2-7.6-13.4-7.7-13.5c-1-2.1-1.6-4.5-1.6-6.8C2274.7,27.7,2280.9,21,2288.5,21z M2287.7,62.3
			l-0.6-5.2h2.7l-0.3,5.2H2287.7z M2290.9,62.4h-0.7l0.3-5.3h2.4l-1.5,5.4C2291.2,62.4,2291,62.4,2290.9,62.4z"/>
		<path class="st1" d="M2354.8,50.4l0.1-0.2c4-5.3,7.9-13.7,7.9-13.8c1.1-2.2,1.7-4.7,1.7-7.3c0-8.7-6.6-15.7-14.6-15.7
			c-8.1,0-14.6,7-14.6,15.7c0,2.5,0.6,5,1.6,7.3c0,0.1,3.9,8.6,7.9,13.8l0.1,0.2l1.5,5.8c-0.3,0.3-0.4,0.7-0.4,1.1V58h-1.5
			c-0.1,0-0.2,0-0.2,0.1c-0.1,0.1-0.1,0.2-0.1,0.3l0.8,7.8c0,0.2,0.2,0.3,0.3,0.3h9.2c0.2,0,0.3-0.1,0.3-0.3l0.8-7.8
			c0-0.1,0-0.2-0.1-0.3s-0.2-0.1-0.2-0.1h-1.5v-0.7c0-0.5-0.2-1-0.6-1.3L2354.8,50.4L2354.8,50.4z M2353.1,58h-0.9
			c-0.1,0-0.3,0.1-0.3,0.3c0,0.2-0.2,0.3-0.3,0.3h-3.4c-0.2,0-0.3-0.1-0.3-0.3c0-0.2-0.2-0.3-0.3-0.3h-0.9v-0.7c0-0.5,0.4-1,0.9-1
			h4.7c0.5,0,0.9,0.4,0.9,1V58z M2354.1,65.7h-8.4l-0.7-6.8h2.2c0.2,0.3,0.5,0.6,0.9,0.6h3.5c0.4,0,0.7-0.2,0.9-0.6h2.2L2354.1,65.7
			z M2347.5,55.7c-0.2,0-0.4,0-0.6,0.1l-1.4-5.4h2.4l0.6,5.3H2347.5z M2349.9,14.4c7.6,0,13.8,6.6,13.8,14.8c0,2.4-0.5,4.8-1.6,6.9
			c0,0.1-3.8,8.3-7.7,13.5h-9.1c-3.9-5.2-7.6-13.4-7.7-13.5c-1-2.1-1.6-4.5-1.6-6.8C2336.1,21,2342.3,14.4,2349.9,14.4z
			 M2349.1,55.6l-0.6-5.2h2.7l-0.3,5.2H2349.1z M2352.2,55.7h-0.7l0.3-5.3h2.4l-1.5,5.4C2352.5,55.7,2352.4,55.7,2352.2,55.7z"/>
		<path class="st1" d="M2416.2,43.7l0.1-0.2c4-5.3,7.9-13.7,7.9-13.8c1.1-2.2,1.7-4.7,1.7-7.3c0-8.7-6.6-15.7-14.6-15.7
			c-8.1,0-14.6,7-14.6,15.7c0,2.5,0.6,5,1.6,7.3c0,0.1,3.9,8.6,7.9,13.8l0.1,0.2l1.5,5.8c-0.3,0.3-0.4,0.7-0.4,1.1v0.7h-1.5
			c-0.1,0-0.2,0-0.2,0.1c-0.1,0.1-0.1,0.2-0.1,0.3l0.8,7.8c0,0.2,0.2,0.3,0.3,0.3h9.2c0.2,0,0.3-0.1,0.3-0.3l0.8-7.8
			c0-0.1,0-0.2-0.1-0.3s-0.2-0.1-0.2-0.1h-1.5v-0.7c0-0.5-0.2-1-0.6-1.3L2416.2,43.7L2416.2,43.7z M2414.5,51.3h-0.9
			c-0.1,0-0.3,0.1-0.3,0.3c0,0.2-0.2,0.3-0.3,0.3h-3.4c-0.2,0-0.3-0.1-0.3-0.3c0-0.2-0.2-0.3-0.3-0.3h-0.9v-0.7c0-0.5,0.4-1,0.9-1
			h4.7c0.5,0,0.9,0.4,0.9,1V51.3z M2415.4,59h-8.4l-0.7-6.8h2.2c0.2,0.3,0.5,0.6,0.9,0.6h3.5c0.4,0,0.7-0.2,0.9-0.6h2.2L2415.4,59z
			 M2408.9,49c-0.2,0-0.4,0-0.6,0.1l-1.4-5.4h2.4l0.6,5.3H2408.9z M2411.3,7.7c7.6,0,13.8,6.6,13.8,14.8c0,2.4-0.5,4.8-1.6,6.9
			c0,0.1-3.8,8.3-7.7,13.5h-9.1c-3.9-5.2-7.6-13.4-7.7-13.5c-1-2.1-1.6-4.5-1.6-6.8C2397.4,14.3,2403.6,7.7,2411.3,7.7z
			 M2410.5,48.9l-0.6-5.2h2.7l-0.3,5.2H2410.5z M2413.6,49h-0.7l0.3-5.3h2.4l-1.5,5.4C2413.9,49,2413.8,49,2413.6,49z"/>
		<path class="st1" d="M2477.6,57.1l0.1-0.2c4-5.3,7.9-13.7,7.9-13.8c1.1-2.2,1.7-4.7,1.7-7.3c0-8.7-6.6-15.7-14.6-15.7
			c-8.1,0-14.6,7-14.6,15.7c0,2.5,0.6,5,1.6,7.3c0,0.1,3.9,8.6,7.9,13.8l0.1,0.2l1.5,5.8c-0.3,0.3-0.4,0.7-0.4,1.1v0.7h-1.5
			c-0.1,0-0.2,0-0.2,0.1c-0.1,0.1-0.1,0.2-0.1,0.3l0.8,7.8c0,0.2,0.2,0.3,0.3,0.3h9.2c0.2,0,0.3-0.1,0.3-0.3l0.8-7.8
			c0-0.1,0-0.2-0.1-0.3c-0.1-0.1-0.2-0.1-0.2-0.1h-1.5V64c0-0.5-0.2-1-0.6-1.3L2477.6,57.1L2477.6,57.1z M2475.9,64.7h-0.9
			c-0.1,0-0.3,0.1-0.3,0.3c0,0.2-0.2,0.3-0.3,0.3h-3.4c-0.2,0-0.3-0.1-0.3-0.3c0-0.2-0.2-0.3-0.3-0.3h-0.9V64c0-0.5,0.4-1,0.9-1h4.7
			c0.5,0,0.9,0.4,0.9,1V64.7z M2476.8,72.4h-8.4l-0.7-6.8h2.2c0.2,0.3,0.5,0.6,0.9,0.6h3.5c0.4,0,0.7-0.2,0.9-0.6h2.2L2476.8,72.4z
			 M2470.3,62.4c-0.2,0-0.4,0-0.6,0.1l-1.4-5.4h2.4l0.6,5.3H2470.3z M2472.6,21c7.6,0,13.8,6.6,13.8,14.8c0,2.4-0.5,4.8-1.6,6.9
			c0,0.1-3.8,8.3-7.7,13.5h-9.1c-3.9-5.2-7.6-13.4-7.7-13.5c-1-2.1-1.6-4.5-1.6-6.8C2458.8,27.7,2465,21,2472.6,21z M2471.9,62.3
			l-0.6-5.2h2.7l-0.3,5.2H2471.9z M2475,62.4h-0.7l0.3-5.3h2.4l-1.5,5.4C2475.3,62.4,2475.1,62.4,2475,62.4z"/>
		<path class="st1" d="M2538.9,50.4l0.1-0.2c4-5.3,7.9-13.7,7.9-13.8c1.1-2.2,1.7-4.7,1.7-7.3c0-8.7-6.6-15.7-14.6-15.7
			c-8.1,0-14.6,7-14.6,15.7c0,2.5,0.6,5,1.6,7.3c0,0.1,3.9,8.6,7.9,13.8l0.1,0.2l1.5,5.8c-0.3,0.3-0.4,0.7-0.4,1.1V58h-1.5
			c-0.1,0-0.2,0-0.2,0.1c-0.1,0.1-0.1,0.2-0.1,0.3l0.8,7.8c0,0.2,0.2,0.3,0.3,0.3h9.2c0.2,0,0.3-0.1,0.3-0.3l0.8-7.8
			c0-0.1,0-0.2-0.1-0.3s-0.2-0.1-0.2-0.1h-1.5v-0.7c0-0.5-0.2-1-0.6-1.3L2538.9,50.4L2538.9,50.4z M2537.2,58h-0.9
			c-0.1,0-0.3,0.1-0.3,0.3c0,0.2-0.2,0.3-0.3,0.3h-3.4c-0.2,0-0.3-0.1-0.3-0.3c0-0.2-0.2-0.3-0.3-0.3h-0.9v-0.7c0-0.5,0.4-1,0.9-1
			h4.7c0.5,0,0.9,0.4,0.9,1V58z M2538.2,65.7h-8.4l-0.7-6.8h2.2c0.2,0.3,0.5,0.6,0.9,0.6h3.5c0.4,0,0.7-0.2,0.9-0.6h2.2L2538.2,65.7
			z M2531.6,55.7c-0.2,0-0.4,0-0.6,0.1l-1.4-5.4h2.4l0.6,5.3H2531.6z M2534,14.4c7.6,0,13.8,6.6,13.8,14.8c0,2.4-0.5,4.8-1.6,6.9
			c0,0.1-3.8,8.3-7.7,13.5h-9.1c-3.9-5.2-7.6-13.4-7.7-13.5c-1-2.1-1.6-4.5-1.6-6.8C2520.2,21,2526.4,14.4,2534,14.4z M2533.2,55.6
			l-0.6-5.2h2.7l-0.3,5.2H2533.2z M2536.4,55.7h-0.7l0.3-5.3h2.4l-1.5,5.4C2536.7,55.7,2536.5,55.7,2536.4,55.7z"/>
		<path class="st1" d="M2600.3,43.7l0.1-0.2c4-5.3,7.9-13.7,7.9-13.8c1.1-2.2,1.7-4.7,1.7-7.3c0-8.7-6.6-15.7-14.6-15.7
			s-14.6,7-14.6,15.7c0,2.5,0.6,5,1.6,7.3c0,0.1,3.9,8.6,7.9,13.8l0.1,0.2l1.5,5.8c-0.3,0.3-0.4,0.7-0.4,1.1v0.7h-1.5
			c-0.1,0-0.2,0-0.2,0.1c-0.1,0.1-0.1,0.2-0.1,0.3l0.8,7.8c0,0.2,0.2,0.3,0.3,0.3h9.2c0.2,0,0.3-0.1,0.3-0.3l0.8-7.8
			c0-0.1,0-0.2-0.1-0.3c-0.1-0.1-0.2-0.1-0.2-0.1h-1.5v-0.7c0-0.5-0.2-1-0.6-1.3L2600.3,43.7L2600.3,43.7z M2598.6,51.3h-0.9
			c-0.1,0-0.3,0.1-0.3,0.3c0,0.2-0.2,0.3-0.3,0.3h-3.4c-0.2,0-0.3-0.1-0.3-0.3c0-0.2-0.2-0.3-0.3-0.3h-0.9v-0.7c0-0.5,0.4-1,0.9-1
			h4.7c0.5,0,0.9,0.4,0.9,1V51.3z M2599.6,59h-8.4l-0.7-6.8h2.2c0.2,0.3,0.5,0.6,0.9,0.6h3.5c0.4,0,0.7-0.2,0.9-0.6h2.2L2599.6,59z
			 M2593,49c-0.2,0-0.4,0-0.6,0.1l-1.4-5.4h2.4l0.6,5.3H2593z M2595.4,7.7c7.6,0,13.8,6.6,13.8,14.8c0,2.4-0.5,4.8-1.6,6.9
			c0,0.1-3.8,8.3-7.7,13.5h-9.1c-3.9-5.2-7.6-13.4-7.7-13.5c-1-2.1-1.6-4.5-1.6-6.8C2581.6,14.3,2587.8,7.7,2595.4,7.7z
			 M2594.6,48.9l-0.6-5.2h2.7l-0.3,5.2H2594.6z M2597.7,49h-0.7l0.3-5.3h2.4l-1.5,5.4C2598,49,2597.9,49,2597.7,49z"/>
		<path class="st1" d="M2661.7,57.1l0.1-0.2c4-5.3,7.9-13.7,7.9-13.8c1.1-2.2,1.7-4.7,1.7-7.3c0-8.7-6.6-15.7-14.6-15.7
			s-14.6,7-14.6,15.7c0,2.5,0.6,5,1.6,7.3c0,0.1,3.9,8.6,7.9,13.8l0.1,0.2l1.5,5.8c-0.3,0.3-0.4,0.7-0.4,1.1v0.7h-1.5
			c-0.1,0-0.2,0-0.2,0.1c-0.1,0.1-0.1,0.2-0.1,0.3l0.8,7.8c0,0.2,0.2,0.3,0.3,0.3h9.2c0.2,0,0.3-0.1,0.3-0.3l0.8-7.8
			c0-0.1,0-0.2-0.1-0.3c-0.1-0.1-0.2-0.1-0.2-0.1h-1.5V64c0-0.5-0.2-1-0.6-1.3L2661.7,57.1L2661.7,57.1z M2660,64.7h-0.9
			c-0.1,0-0.3,0.1-0.3,0.3c0,0.2-0.2,0.3-0.3,0.3h-3.4c-0.2,0-0.3-0.1-0.3-0.3c0-0.2-0.2-0.3-0.3-0.3h-0.9V64c0-0.5,0.4-1,0.9-1h4.7
			c0.5,0,0.9,0.4,0.9,1V64.7z M2660.9,72.4h-8.4l-0.7-6.8h2.2c0.2,0.3,0.5,0.6,0.9,0.6h3.5c0.4,0,0.7-0.2,0.9-0.6h2.2L2660.9,72.4z
			 M2654.4,62.4c-0.2,0-0.4,0-0.6,0.1l-1.4-5.4h2.4l0.6,5.3H2654.4z M2656.7,21c7.6,0,13.8,6.6,13.8,14.8c0,2.4-0.5,4.8-1.6,6.9
			c0,0.1-3.8,8.3-7.7,13.5h-9.1c-3.9-5.2-7.6-13.4-7.7-13.5c-1-2.1-1.6-4.5-1.6-6.8C2642.9,27.7,2649.1,21,2656.7,21z M2656,62.3
			l-0.6-5.2h2.7l-0.3,5.2H2656z M2659.1,62.4h-0.7l0.3-5.3h2.4l-1.5,5.4C2659.4,62.4,2659.3,62.4,2659.1,62.4z"/>
		<path class="st1" d="M2720.6,50.4l0.1-0.2c4-5.3,7.9-13.7,7.9-13.8c1.1-2.2,1.7-4.7,1.7-7.3c0-8.7-6.6-15.7-14.6-15.7
			s-14.6,7-14.6,15.7c0,2.5,0.6,5,1.6,7.3c0,0.1,3.9,8.6,7.9,13.8l0.1,0.2l1.5,5.8c-0.3,0.3-0.4,0.7-0.4,1.1V58h-1.5
			c-0.1,0-0.2,0-0.2,0.1c-0.1,0.1-0.1,0.2-0.1,0.3l0.8,7.8c0,0.2,0.2,0.3,0.3,0.3h9.2c0.2,0,0.3-0.1,0.3-0.3l0.8-7.8
			c0-0.1,0-0.2-0.1-0.3c-0.1-0.1-0.2-0.1-0.2-0.1h-1.5v-0.7c0-0.5-0.2-1-0.6-1.3L2720.6,50.4L2720.6,50.4z M2718.9,58h-0.9
			c-0.1,0-0.3,0.1-0.3,0.3c0,0.2-0.2,0.3-0.3,0.3h-3.4c-0.2,0-0.3-0.1-0.3-0.3c0-0.2-0.2-0.3-0.3-0.3h-0.9v-0.7c0-0.5,0.4-1,0.9-1
			h4.7c0.5,0,0.9,0.4,0.9,1V58z M2719.8,65.7h-8.4l-0.7-6.8h2.2c0.2,0.3,0.5,0.6,0.9,0.6h3.5c0.4,0,0.7-0.2,0.9-0.6h2.2L2719.8,65.7
			z M2713.3,55.7c-0.2,0-0.4,0-0.6,0.1l-1.4-5.4h2.4l0.6,5.3H2713.3z M2715.7,14.4c7.6,0,13.8,6.6,13.8,14.8c0,2.4-0.5,4.8-1.6,6.9
			c0,0.1-3.8,8.3-7.7,13.5h-9.1c-3.9-5.2-7.6-13.4-7.7-13.5c-1-2.1-1.6-4.5-1.6-6.8C2701.8,21,2708,14.4,2715.7,14.4z M2714.9,55.6
			l-0.6-5.2h2.7l-0.3,5.2H2714.9z M2718,55.7h-0.7l0.3-5.3h2.4l-1.5,5.4C2718.3,55.7,2718.2,55.7,2718,55.7z"/>
		<path class="st1" d="M2783.2,43.7l0.1-0.2c4-5.3,7.9-13.7,7.9-13.8c1.1-2.2,1.7-4.7,1.7-7.3c0-8.7-6.6-15.7-14.6-15.7
			c-8.1,0-14.6,7-14.6,15.7c0,2.5,0.6,5,1.6,7.3c0,0.1,3.9,8.6,7.9,13.8l0.1,0.2l1.5,5.8c-0.3,0.3-0.4,0.7-0.4,1.1v0.7h-1.5
			c-0.1,0-0.2,0-0.2,0.1c-0.1,0.1-0.1,0.2-0.1,0.3l0.8,7.8c0,0.2,0.2,0.3,0.3,0.3h9.2c0.2,0,0.3-0.1,0.3-0.3l0.8-7.8
			c0-0.1,0-0.2-0.1-0.3c-0.1-0.1-0.2-0.1-0.2-0.1h-1.5v-0.7c0-0.5-0.2-1-0.6-1.3L2783.2,43.7L2783.2,43.7z M2781.5,51.3h-0.9
			c-0.1,0-0.3,0.1-0.3,0.3c0,0.2-0.2,0.3-0.3,0.3h-3.4c-0.2,0-0.3-0.1-0.3-0.3c0-0.2-0.2-0.3-0.3-0.3h-0.9v-0.7c0-0.5,0.4-1,0.9-1
			h4.7c0.5,0,0.9,0.4,0.9,1V51.3z M2782.4,59h-8.4l-0.7-6.8h2.2c0.2,0.3,0.5,0.6,0.9,0.6h3.5c0.4,0,0.7-0.2,0.9-0.6h2.2L2782.4,59z
			 M2775.9,49c-0.2,0-0.4,0-0.6,0.1l-1.4-5.4h2.4l0.6,5.3H2775.9z M2778.3,7.7c7.6,0,13.8,6.6,13.8,14.8c0,2.4-0.5,4.8-1.6,6.9
			c0,0.1-3.8,8.3-7.7,13.5h-9.1c-3.9-5.2-7.6-13.4-7.7-13.5c-1-2.1-1.6-4.5-1.6-6.8C2764.5,14.3,2770.6,7.7,2778.3,7.7z
			 M2777.5,48.9l-0.6-5.2h2.7l-0.3,5.2H2777.5z M2780.6,49h-0.7l0.3-5.3h2.4l-1.5,5.4C2780.9,49,2780.8,49,2780.6,49z"/>
		<path class="st1" d="M2843.3,57.1l0.1-0.2c4-5.3,7.9-13.7,7.9-13.8c1.1-2.2,1.7-4.7,1.7-7.3c0-8.7-6.6-15.7-14.6-15.7
			c-8.1,0-14.6,7-14.6,15.7c0,2.5,0.6,5,1.6,7.3c0,0.1,3.9,8.6,7.9,13.8l0.1,0.2l1.5,5.8c-0.3,0.3-0.4,0.7-0.4,1.1v0.7h-1.5
			c-0.1,0-0.2,0-0.2,0.1c-0.1,0.1-0.1,0.2-0.1,0.3l0.8,7.8c0,0.2,0.2,0.3,0.3,0.3h9.2c0.2,0,0.3-0.1,0.3-0.3l0.8-7.8
			c0-0.1,0-0.2-0.1-0.3s-0.2-0.1-0.2-0.1h-1.5V64c0-0.5-0.2-1-0.6-1.3L2843.3,57.1L2843.3,57.1z M2841.6,64.7h-0.9
			c-0.1,0-0.3,0.1-0.3,0.3c0,0.2-0.2,0.3-0.3,0.3h-3.4c-0.2,0-0.3-0.1-0.3-0.3c0-0.2-0.2-0.3-0.3-0.3h-0.9V64c0-0.5,0.4-1,0.9-1h4.7
			c0.5,0,0.9,0.4,0.9,1V64.7z M2842.6,72.4h-8.4l-0.7-6.8h2.2c0.2,0.3,0.5,0.6,0.9,0.6h3.5c0.4,0,0.7-0.2,0.9-0.6h2.2L2842.6,72.4z
			 M2836,62.4c-0.2,0-0.4,0-0.6,0.1l-1.4-5.4h2.4l0.6,5.3H2836z M2838.4,21c7.6,0,13.8,6.6,13.8,14.8c0,2.4-0.5,4.8-1.6,6.9
			c0,0.1-3.8,8.3-7.7,13.5h-9.1c-3.9-5.2-7.6-13.4-7.7-13.5c-1-2.1-1.6-4.5-1.6-6.8C2824.6,27.7,2830.8,21,2838.4,21z M2837.6,62.3
			l-0.6-5.2h2.7l-0.3,5.2H2837.6z M2840.8,62.4h-0.7l0.3-5.3h2.4l-1.5,5.4C2841.1,62.4,2840.9,62.4,2840.8,62.4z"/>
		<path class="st1" d="M2907.2,50.4l0.1-0.2c4-5.3,7.9-13.7,7.9-13.8c1.1-2.2,1.7-4.7,1.7-7.3c0-8.7-6.6-15.7-14.6-15.7
			c-8.1,0-14.6,7-14.6,15.7c0,2.5,0.6,5,1.6,7.3c0,0.1,3.9,8.6,7.9,13.8l0.1,0.2l1.5,5.8c-0.3,0.3-0.4,0.7-0.4,1.1V58h-1.5
			c-0.1,0-0.2,0-0.2,0.1c-0.1,0.1-0.1,0.2-0.1,0.3l0.8,7.8c0,0.2,0.2,0.3,0.3,0.3h9.2c0.2,0,0.3-0.1,0.3-0.3l0.8-7.8
			c0-0.1,0-0.2-0.1-0.3s-0.2-0.1-0.2-0.1h-1.5v-0.7c0-0.5-0.2-1-0.6-1.3L2907.2,50.4L2907.2,50.4z M2905.5,58h-0.9
			c-0.1,0-0.3,0.1-0.3,0.3c0,0.2-0.2,0.3-0.3,0.3h-3.4c-0.2,0-0.3-0.1-0.3-0.3c0-0.2-0.2-0.3-0.3-0.3h-0.9v-0.7c0-0.5,0.4-1,0.9-1
			h4.7c0.5,0,0.9,0.4,0.9,1V58z M2906.4,65.7h-8.4l-0.7-6.8h2.2c0.2,0.3,0.5,0.6,0.9,0.6h3.5c0.4,0,0.7-0.2,0.9-0.6h2.2L2906.4,65.7
			z M2899.9,55.7c-0.2,0-0.4,0-0.6,0.1l-1.4-5.4h2.4l0.6,5.3H2899.9z M2902.2,14.4c7.6,0,13.8,6.6,13.8,14.8c0,2.4-0.5,4.8-1.6,6.9
			c0,0.1-3.8,8.3-7.7,13.5h-9.1c-3.9-5.2-7.6-13.4-7.7-13.5c-1-2.1-1.6-4.5-1.6-6.8C2888.4,21,2894.6,14.4,2902.2,14.4z
			 M2901.5,55.6l-0.6-5.2h2.7l-0.3,5.2H2901.5z M2904.6,55.7h-0.7l0.3-5.3h2.4l-1.5,5.4C2904.9,55.7,2904.8,55.7,2904.6,55.7z"/>
		<path class="st1" d="M2967.3,43.7l0.1-0.2c4-5.3,7.9-13.7,7.9-13.8c1.1-2.2,1.7-4.7,1.7-7.3c0-8.7-6.6-15.7-14.6-15.7
			s-14.6,7-14.6,15.7c0,2.5,0.6,5,1.6,7.3c0,0.1,3.9,8.6,7.9,13.8l0.1,0.2l1.5,5.8c-0.3,0.3-0.4,0.7-0.4,1.1v0.7h-1.5
			c-0.1,0-0.2,0-0.2,0.1c-0.1,0.1-0.1,0.2-0.1,0.3l0.8,7.8c0,0.2,0.2,0.3,0.3,0.3h9.2c0.2,0,0.3-0.1,0.3-0.3l0.8-7.8
			c0-0.1,0-0.2-0.1-0.3c-0.1-0.1-0.2-0.1-0.2-0.1h-1.5v-0.7c0-0.5-0.2-1-0.6-1.3L2967.3,43.7L2967.3,43.7z M2965.6,51.3h-0.9
			c-0.1,0-0.3,0.1-0.3,0.3c0,0.2-0.2,0.3-0.3,0.3h-3.4c-0.2,0-0.3-0.1-0.3-0.3c0-0.2-0.2-0.3-0.3-0.3h-0.9v-0.7c0-0.5,0.4-1,0.9-1
			h4.7c0.5,0,0.9,0.4,0.9,1V51.3z M2966.6,59h-8.4l-0.7-6.8h2.2c0.2,0.3,0.5,0.6,0.9,0.6h3.5c0.4,0,0.7-0.2,0.9-0.6h2.2L2966.6,59z
			 M2960,49c-0.2,0-0.4,0-0.6,0.1l-1.4-5.4h2.4l0.6,5.3H2960z M2962.4,7.7c7.6,0,13.8,6.6,13.8,14.8c0,2.4-0.5,4.8-1.6,6.9
			c0,0.1-3.8,8.3-7.7,13.5h-9.1c-3.9-5.2-7.6-13.4-7.7-13.5c-1-2.1-1.6-4.5-1.6-6.8C2948.6,14.3,2954.8,7.7,2962.4,7.7z
			 M2961.6,48.9l-0.6-5.2h2.7l-0.3,5.2H2961.6z M2964.7,49h-0.7l0.3-5.3h2.4l-1.5,5.4C2965,49,2964.9,49,2964.7,49z"/>
		<path class="st1" d="M3031.2,57.1l0.1-0.2c4-5.3,7.9-13.7,7.9-13.8c1.1-2.2,1.7-4.7,1.7-7.3c0-8.7-6.6-15.7-14.6-15.7
			c-8.1,0-14.6,7-14.6,15.7c0,2.5,0.6,5,1.6,7.3c0,0.1,3.9,8.6,7.9,13.8l0.1,0.2l1.5,5.8c-0.3,0.3-0.4,0.7-0.4,1.1v0.7h-1.5
			c-0.1,0-0.2,0-0.2,0.1c-0.1,0.1-0.1,0.2-0.1,0.3l0.8,7.8c0,0.2,0.2,0.3,0.3,0.3h9.2c0.2,0,0.3-0.1,0.3-0.3l0.8-7.8
			c0-0.1,0-0.2-0.1-0.3s-0.2-0.1-0.2-0.1h-1.5V64c0-0.5-0.2-1-0.6-1.3L3031.2,57.1L3031.2,57.1z M3029.5,64.7h-0.9
			c-0.1,0-0.3,0.1-0.3,0.3c0,0.2-0.2,0.3-0.3,0.3h-3.4c-0.2,0-0.3-0.1-0.3-0.3c0-0.2-0.2-0.3-0.3-0.3h-0.9V64c0-0.5,0.4-1,0.9-1h4.7
			c0.5,0,0.9,0.4,0.9,1V64.7z M3030.4,72.4h-8.4l-0.7-6.8h2.2c0.2,0.3,0.5,0.6,0.9,0.6h3.5c0.4,0,0.7-0.2,0.9-0.6h2.2L3030.4,72.4z
			 M3023.9,62.4c-0.2,0-0.4,0-0.6,0.1l-1.4-5.4h2.4l0.6,5.3H3023.9z M3026.2,21c7.6,0,13.8,6.6,13.8,14.8c0,2.4-0.5,4.8-1.6,6.9
			c0,0.1-3.8,8.3-7.7,13.5h-9.1c-3.9-5.2-7.6-13.4-7.7-13.5c-1-2.1-1.6-4.5-1.6-6.8C3012.4,27.7,3018.6,21,3026.2,21z M3025.5,62.3
			l-0.6-5.2h2.7l-0.3,5.2H3025.5z M3028.6,62.4h-0.7l0.3-5.3h2.4l-1.5,5.4C3028.9,62.4,3028.7,62.4,3028.6,62.4z"/>
		<path class="st1" d="M3091.3,50.4l0.1-0.2c4-5.3,7.9-13.7,7.9-13.8c1.1-2.2,1.7-4.7,1.7-7.3c0-8.7-6.6-15.7-14.6-15.7
			s-14.6,7-14.6,15.7c0,2.5,0.6,5,1.6,7.3c0,0.1,3.9,8.6,7.9,13.8l0.1,0.2l1.5,5.8c-0.3,0.3-0.4,0.7-0.4,1.1V58h-1.5
			c-0.1,0-0.2,0-0.2,0.1c-0.1,0.1-0.1,0.2-0.1,0.3l0.8,7.8c0,0.2,0.2,0.3,0.3,0.3h9.2c0.2,0,0.3-0.1,0.3-0.3l0.8-7.8
			c0-0.1,0-0.2-0.1-0.3c-0.1-0.1-0.2-0.1-0.2-0.1h-1.5v-0.7c0-0.5-0.2-1-0.6-1.3L3091.3,50.4L3091.3,50.4z M3089.6,58h-0.9
			c-0.1,0-0.3,0.1-0.3,0.3c0,0.2-0.2,0.3-0.3,0.3h-3.4c-0.2,0-0.3-0.1-0.3-0.3c0-0.2-0.2-0.3-0.3-0.3h-0.9v-0.7c0-0.5,0.4-1,0.9-1
			h4.7c0.5,0,0.9,0.4,0.9,1V58z M3090.6,65.7h-8.4l-0.7-6.8h2.2c0.2,0.3,0.5,0.6,0.9,0.6h3.5c0.4,0,0.7-0.2,0.9-0.6h2.2L3090.6,65.7
			z M3084,55.7c-0.2,0-0.4,0-0.6,0.1l-1.4-5.4h2.4l0.6,5.3H3084z M3086.4,14.4c7.6,0,13.8,6.6,13.8,14.8c0,2.4-0.5,4.8-1.6,6.9
			c0,0.1-3.8,8.3-7.7,13.5h-9.1c-3.9-5.2-7.6-13.4-7.7-13.5c-1-2.1-1.6-4.5-1.6-6.8C3072.6,21,3078.8,14.4,3086.4,14.4z
			 M3085.6,55.6l-0.6-5.2h2.7l-0.3,5.2H3085.6z M3088.7,55.7h-0.7l0.3-5.3h2.4l-1.5,5.4C3089,55.7,3088.9,55.7,3088.7,55.7z"/>
		<path class="st1" d="M3152.7,43.7l0.1-0.2c4-5.3,7.9-13.7,7.9-13.8c1.1-2.2,1.7-4.7,1.7-7.3c0-8.7-6.6-15.7-14.6-15.7
			s-14.6,7-14.6,15.7c0,2.5,0.6,5,1.6,7.3c0,0.1,3.9,8.6,7.9,13.8l0.1,0.2l1.5,5.8c-0.3,0.3-0.4,0.7-0.4,1.1v0.7h-1.5
			c-0.1,0-0.2,0-0.2,0.1c-0.1,0.1-0.1,0.2-0.1,0.3l0.8,7.8c0,0.2,0.2,0.3,0.3,0.3h9.2c0.2,0,0.3-0.1,0.3-0.3l0.8-7.8
			c0-0.1,0-0.2-0.1-0.3c-0.1-0.1-0.2-0.1-0.2-0.1h-1.5v-0.7c0-0.5-0.2-1-0.6-1.3L3152.7,43.7L3152.7,43.7z M3151,51.3h-0.9
			c-0.1,0-0.3,0.1-0.3,0.3c0,0.2-0.2,0.3-0.3,0.3h-3.4c-0.2,0-0.3-0.1-0.3-0.3c0-0.2-0.2-0.3-0.3-0.3h-0.9v-0.7c0-0.5,0.4-1,0.9-1
			h4.7c0.5,0,0.9,0.4,0.9,1V51.3z M3151.9,59h-8.4l-0.7-6.8h2.2c0.2,0.3,0.5,0.6,0.9,0.6h3.5c0.4,0,0.7-0.2,0.9-0.6h2.2L3151.9,59z
			 M3145.4,49c-0.2,0-0.4,0-0.6,0.1l-1.4-5.4h2.4l0.6,5.3H3145.4z M3147.7,7.7c7.6,0,13.8,6.6,13.8,14.8c0,2.4-0.5,4.8-1.6,6.9
			c0,0.1-3.8,8.3-7.7,13.5h-9.1c-3.9-5.2-7.6-13.4-7.7-13.5c-1-2.1-1.6-4.5-1.6-6.8C3133.9,14.3,3140.1,7.7,3147.7,7.7z M3147,48.9
			l-0.6-5.2h2.7l-0.3,5.2H3147z M3150.1,49h-0.7l0.3-5.3h2.4l-1.5,5.4C3150.4,49,3150.3,49,3150.1,49z"/>
		<path class="st1" d="M3214.1,57.1l0.1-0.2c4-5.3,7.9-13.7,7.9-13.8c1.1-2.2,1.7-4.7,1.7-7.3c0-8.7-6.6-15.7-14.6-15.7
			c-8.1,0-14.6,7-14.6,15.7c0,2.5,0.6,5,1.6,7.3c0,0.1,3.9,8.6,7.9,13.8l0.1,0.2l1.5,5.8c-0.3,0.3-0.4,0.7-0.4,1.1v0.7h-1.5
			c-0.1,0-0.2,0-0.2,0.1c-0.1,0.1-0.1,0.2-0.1,0.3l0.8,7.8c0,0.2,0.2,0.3,0.3,0.3h9.2c0.2,0,0.3-0.1,0.3-0.3l0.8-7.8
			c0-0.1,0-0.2-0.1-0.3s-0.2-0.1-0.2-0.1h-1.5V64c0-0.5-0.2-1-0.6-1.3L3214.1,57.1L3214.1,57.1z M3212.4,64.7h-0.9
			c-0.1,0-0.3,0.1-0.3,0.3c0,0.2-0.2,0.3-0.3,0.3h-3.4c-0.2,0-0.3-0.1-0.3-0.3c0-0.2-0.2-0.3-0.3-0.3h-0.9V64c0-0.5,0.4-1,0.9-1h4.7
			c0.5,0,0.9,0.4,0.9,1V64.7z M3213.3,72.4h-8.4l-0.7-6.8h2.2c0.2,0.3,0.5,0.6,0.9,0.6h3.5c0.4,0,0.7-0.2,0.9-0.6h2.2L3213.3,72.4z
			 M3206.8,62.4c-0.2,0-0.4,0-0.6,0.1l-1.4-5.4h2.4l0.6,5.3H3206.8z M3209.1,21c7.6,0,13.8,6.6,13.8,14.8c0,2.4-0.5,4.8-1.6,6.9
			c0,0.1-3.8,8.3-7.7,13.5h-9.1c-3.9-5.2-7.6-13.4-7.7-13.5c-1-2.1-1.6-4.5-1.6-6.8C3195.3,27.7,3201.5,21,3209.1,21z M3208.4,62.3
			l-0.6-5.2h2.7l-0.3,5.2H3208.4z M3211.5,62.4h-0.7l0.3-5.3h2.4l-1.5,5.4C3211.8,62.4,3211.6,62.4,3211.5,62.4z"/>
		<path class="st1" d="M3275.4,50.4l0.1-0.2c4-5.3,7.9-13.7,7.9-13.8c1.1-2.2,1.7-4.7,1.7-7.3c0-8.7-6.6-15.7-14.6-15.7
			c-8.1,0-14.6,7-14.6,15.7c0,2.5,0.6,5,1.6,7.3c0,0.1,3.9,8.6,7.9,13.8l0.1,0.2l1.5,5.8c-0.3,0.3-0.4,0.7-0.4,1.1V58h-1.5
			c-0.1,0-0.2,0-0.2,0.1c-0.1,0.1-0.1,0.2-0.1,0.3l0.8,7.8c0,0.2,0.2,0.3,0.3,0.3h9.2c0.2,0,0.3-0.1,0.3-0.3l0.8-7.8
			c0-0.1,0-0.2-0.1-0.3s-0.2-0.1-0.2-0.1h-1.5v-0.7c0-0.5-0.2-1-0.6-1.3L3275.4,50.4L3275.4,50.4z M3273.7,58h-0.9
			c-0.1,0-0.3,0.1-0.3,0.3c0,0.2-0.2,0.3-0.3,0.3h-3.4c-0.2,0-0.3-0.1-0.3-0.3c0-0.2-0.2-0.3-0.3-0.3h-0.9v-0.7c0-0.5,0.4-1,0.9-1
			h4.7c0.5,0,0.9,0.4,0.9,1V58z M3274.7,65.7h-8.4l-0.7-6.8h2.2c0.2,0.3,0.5,0.6,0.9,0.6h3.5c0.4,0,0.7-0.2,0.9-0.6h2.2L3274.7,65.7
			z M3268.1,55.7c-0.2,0-0.4,0-0.6,0.1l-1.4-5.4h2.4l0.6,5.3H3268.1z M3270.5,14.4c7.6,0,13.8,6.6,13.8,14.8c0,2.4-0.5,4.8-1.6,6.9
			c0,0.1-3.8,8.3-7.7,13.5h-9.1c-3.9-5.2-7.6-13.4-7.7-13.5c-1-2.1-1.6-4.5-1.6-6.8C3256.7,21,3262.9,14.4,3270.5,14.4z
			 M3269.7,55.6l-0.6-5.2h2.7l-0.3,5.2H3269.7z M3272.8,55.7h-0.7l0.3-5.3h2.4l-1.5,5.4C3273.1,55.7,3273,55.7,3272.8,55.7z"/>
		<path class="st1" d="M3336.8,43.7l0.1-0.2c4-5.3,7.9-13.7,7.9-13.8c1.1-2.2,1.7-4.7,1.7-7.3c0-8.7-6.6-15.7-14.6-15.7
			c-8.1,0-14.6,7-14.6,15.7c0,2.5,0.6,5,1.6,7.3c0,0.1,3.9,8.6,7.9,13.8l0.1,0.2l1.5,5.8c-0.3,0.3-0.4,0.7-0.4,1.1v0.7h-1.5
			c-0.1,0-0.2,0-0.2,0.1c-0.1,0.1-0.1,0.2-0.1,0.3l0.8,7.8c0,0.2,0.2,0.3,0.3,0.3h9.2c0.2,0,0.3-0.1,0.3-0.3l0.8-7.8
			c0-0.1,0-0.2-0.1-0.3s-0.2-0.1-0.2-0.1h-1.5v-0.7c0-0.5-0.2-1-0.6-1.3L3336.8,43.7L3336.8,43.7z M3335.1,51.3h-0.9
			c-0.1,0-0.3,0.1-0.3,0.3c0,0.2-0.2,0.3-0.3,0.3h-3.4c-0.2,0-0.3-0.1-0.3-0.3c0-0.2-0.2-0.3-0.3-0.3h-0.9v-0.7c0-0.5,0.4-1,0.9-1
			h4.7c0.5,0,0.9,0.4,0.9,1V51.3z M3336.1,59h-8.4l-0.7-6.8h2.2c0.2,0.3,0.5,0.6,0.9,0.6h3.5c0.4,0,0.7-0.2,0.9-0.6h2.2L3336.1,59z
			 M3329.5,49c-0.2,0-0.4,0-0.6,0.1l-1.4-5.4h2.4l0.6,5.3H3329.5z M3331.9,7.7c7.6,0,13.8,6.6,13.8,14.8c0,2.4-0.5,4.8-1.6,6.9
			c0,0.1-3.8,8.3-7.7,13.5h-9.1c-3.9-5.2-7.6-13.4-7.7-13.5c-1-2.1-1.6-4.5-1.6-6.8C3318.1,14.3,3324.3,7.7,3331.9,7.7z
			 M3331.1,48.9l-0.6-5.2h2.7l-0.3,5.2H3331.1z M3334.2,49h-0.7l0.3-5.3h2.4l-1.5,5.4C3334.5,49,3334.4,49,3334.2,49z"/>
		<path class="st1" d="M3398.2,57.1l0.1-0.2c4-5.3,7.9-13.7,7.9-13.8c1.1-2.2,1.7-4.7,1.7-7.3c0-8.7-6.6-15.7-14.6-15.7
			c-8.1,0-14.6,7-14.6,15.7c0,2.5,0.6,5,1.6,7.3c0,0.1,3.9,8.6,7.9,13.8l0.1,0.2l1.5,5.8c-0.3,0.3-0.4,0.7-0.4,1.1v0.7h-1.5
			c-0.1,0-0.2,0-0.2,0.1c-0.1,0.1-0.1,0.2-0.1,0.3l0.8,7.8c0,0.2,0.2,0.3,0.3,0.3h9.2c0.2,0,0.3-0.1,0.3-0.3l0.8-7.8
			c0-0.1,0-0.2-0.1-0.3s-0.2-0.1-0.2-0.1h-1.5V64c0-0.5-0.2-1-0.6-1.3L3398.2,57.1L3398.2,57.1z M3396.5,64.7h-0.9
			c-0.1,0-0.3,0.1-0.3,0.3c0,0.2-0.2,0.3-0.3,0.3h-3.4c-0.2,0-0.3-0.1-0.3-0.3c0-0.2-0.2-0.3-0.3-0.3h-0.9V64c0-0.5,0.4-1,0.9-1h4.7
			c0.5,0,0.9,0.4,0.9,1V64.7z M3397.4,72.4h-8.4l-0.7-6.8h2.2c0.2,0.3,0.5,0.6,0.9,0.6h3.5c0.4,0,0.7-0.2,0.9-0.6h2.2L3397.4,72.4z
			 M3390.9,62.4c-0.2,0-0.4,0-0.6,0.1l-1.4-5.4h2.4l0.6,5.3H3390.9z M3393.2,21c7.6,0,13.8,6.6,13.8,14.8c0,2.4-0.5,4.8-1.6,6.9
			c0,0.1-3.8,8.3-7.7,13.5h-9.1c-3.9-5.2-7.6-13.4-7.7-13.5c-1-2.1-1.6-4.5-1.6-6.8C3379.4,27.7,3385.6,21,3393.2,21z M3392.5,62.3
			l-0.6-5.2h2.7l-0.3,5.2H3392.5z M3395.6,62.4h-0.7l0.3-5.3h2.4l-1.5,5.4C3395.9,62.4,3395.7,62.4,3395.6,62.4z"/>
		<path class="st1" d="M3459.6,50.4l0.1-0.2c4-5.3,7.9-13.7,7.9-13.8c1.1-2.2,1.7-4.7,1.7-7.3c0-8.7-6.6-15.7-14.6-15.7
			c-8.1,0-14.6,7-14.6,15.7c0,2.5,0.6,5,1.6,7.3c0,0.1,3.9,8.6,7.9,13.8l0.1,0.2l1.5,5.8c-0.3,0.3-0.4,0.7-0.4,1.1V58h-1.5
			c-0.1,0-0.2,0-0.2,0.1c-0.1,0.1-0.1,0.2-0.1,0.3l0.8,7.8c0,0.2,0.2,0.3,0.3,0.3h9.2c0.2,0,0.3-0.1,0.3-0.3l0.8-7.8
			c0-0.1,0-0.2-0.1-0.3c-0.1-0.1-0.2-0.1-0.2-0.1h-1.5v-0.7c0-0.5-0.2-1-0.6-1.3L3459.6,50.4L3459.6,50.4z M3457.9,58h-0.9
			c-0.1,0-0.3,0.1-0.3,0.3c0,0.2-0.2,0.3-0.3,0.3h-3.4c-0.2,0-0.3-0.1-0.3-0.3c0-0.2-0.2-0.3-0.3-0.3h-0.9v-0.7c0-0.5,0.4-1,0.9-1
			h4.7c0.5,0,0.9,0.4,0.9,1V58z M3458.8,65.7h-8.4l-0.7-6.8h2.2c0.2,0.3,0.5,0.6,0.9,0.6h3.5c0.4,0,0.7-0.2,0.9-0.6h2.2L3458.8,65.7
			z M3452.3,55.7c-0.2,0-0.4,0-0.6,0.1l-1.4-5.4h2.4l0.6,5.3H3452.3z M3454.6,14.4c7.6,0,13.8,6.6,13.8,14.8c0,2.4-0.5,4.8-1.6,6.9
			c0,0.1-3.8,8.3-7.7,13.5h-9.1c-3.9-5.2-7.6-13.4-7.7-13.5c-1-2.1-1.6-4.5-1.6-6.8C3440.8,21,3447,14.4,3454.6,14.4z M3453.9,55.6
			l-0.6-5.2h2.7l-0.3,5.2H3453.9z M3457,55.7h-0.7l0.3-5.3h2.4l-1.5,5.4C3457.3,55.7,3457.1,55.7,3457,55.7z"/>
		<path class="st1" d="M3520.9,43.7l0.1-0.2c4-5.3,7.9-13.7,7.9-13.8c1.1-2.2,1.7-4.7,1.7-7.3c0-8.7-6.6-15.7-14.6-15.7
			c-8.1,0-14.6,7-14.6,15.7c0,2.5,0.6,5,1.6,7.3c0,0.1,3.9,8.6,7.9,13.8l0.1,0.2l1.5,5.8c-0.3,0.3-0.4,0.7-0.4,1.1v0.7h-1.5
			c-0.1,0-0.2,0-0.2,0.1c-0.1,0.1-0.1,0.2-0.1,0.3l0.8,7.8c0,0.2,0.2,0.3,0.3,0.3h9.2c0.2,0,0.3-0.1,0.3-0.3l0.8-7.8
			c0-0.1,0-0.2-0.1-0.3c-0.1-0.1-0.2-0.1-0.2-0.1h-1.5v-0.7c0-0.5-0.2-1-0.6-1.3L3520.9,43.7L3520.9,43.7z M3519.2,51.3h-0.9
			c-0.1,0-0.3,0.1-0.3,0.3c0,0.2-0.2,0.3-0.3,0.3h-3.4c-0.2,0-0.3-0.1-0.3-0.3c0-0.2-0.2-0.3-0.3-0.3h-0.9v-0.7c0-0.5,0.4-1,0.9-1
			h4.7c0.5,0,0.9,0.4,0.9,1V51.3z M3520.2,59h-8.4l-0.7-6.8h2.2c0.2,0.3,0.5,0.6,0.9,0.6h3.5c0.4,0,0.7-0.2,0.9-0.6h2.2L3520.2,59z
			 M3513.6,49c-0.2,0-0.4,0-0.6,0.1l-1.4-5.4h2.4l0.6,5.3H3513.6z M3516,7.7c7.6,0,13.8,6.6,13.8,14.8c0,2.4-0.5,4.8-1.6,6.9
			c0,0.1-3.8,8.3-7.7,13.5h-9.1c-3.9-5.2-7.6-13.4-7.7-13.5c-1-2.1-1.6-4.5-1.6-6.8C3502.2,14.3,3508.4,7.7,3516,7.7z M3515.2,48.9
			l-0.6-5.2h2.7l-0.3,5.2H3515.2z M3518.3,49h-0.7l0.3-5.3h2.4l-1.5,5.4C3518.6,49,3518.5,49,3518.3,49z"/>
		<path class="st1" d="M3582.3,57.1l0.1-0.2c4-5.3,7.9-13.7,7.9-13.8c1.1-2.2,1.7-4.7,1.7-7.3c0-8.7-6.6-15.7-14.6-15.7
			s-14.6,7-14.6,15.7c0,2.5,0.6,5,1.6,7.3c0,0.1,3.9,8.6,7.9,13.8l0.1,0.2l1.5,5.8c-0.3,0.3-0.4,0.7-0.4,1.1v0.7h-1.5
			c-0.1,0-0.2,0-0.2,0.1c-0.1,0.1-0.1,0.2-0.1,0.3l0.8,7.8c0,0.2,0.2,0.3,0.3,0.3h9.2c0.2,0,0.3-0.1,0.3-0.3l0.8-7.8
			c0-0.1,0-0.2-0.1-0.3c-0.1-0.1-0.2-0.1-0.2-0.1h-1.5V64c0-0.5-0.2-1-0.6-1.3L3582.3,57.1L3582.3,57.1z M3580.6,64.7h-0.9
			c-0.1,0-0.3,0.1-0.3,0.3c0,0.2-0.2,0.3-0.3,0.3h-3.4c-0.2,0-0.3-0.1-0.3-0.3c0-0.2-0.2-0.3-0.3-0.3h-0.9V64c0-0.5,0.4-1,0.9-1h4.7
			c0.5,0,0.9,0.4,0.9,1V64.7z M3581.6,72.4h-8.4l-0.7-6.8h2.2c0.2,0.3,0.5,0.6,0.9,0.6h3.5c0.4,0,0.7-0.2,0.9-0.6h2.2L3581.6,72.4z
			 M3575,62.4c-0.2,0-0.4,0-0.6,0.1l-1.4-5.4h2.4l0.6,5.3H3575z M3577.4,21c7.6,0,13.8,6.6,13.8,14.8c0,2.4-0.5,4.8-1.6,6.9
			c0,0.1-3.8,8.3-7.7,13.5h-9.1c-3.9-5.2-7.6-13.4-7.7-13.5c-1-2.1-1.6-4.5-1.6-6.8C3563.6,27.7,3569.8,21,3577.4,21z M3576.6,62.3
			l-0.6-5.2h2.7l-0.3,5.2H3576.6z M3579.7,62.4h-0.7l0.3-5.3h2.4l-1.5,5.4C3580,62.4,3579.9,62.4,3579.7,62.4z"/>
	</g>
	<g class="st0">
		<path class="st1" d="M343.6,50.4l0.1-0.2c4-5.3,7.9-13.7,7.9-13.8c1.1-2.2,1.7-4.7,1.7-7.3c0-8.7-6.6-15.7-14.6-15.7
			c-8.1,0-14.6,7-14.6,15.7c0,2.5,0.6,5,1.6,7.3c0,0.1,3.9,8.6,7.9,13.8l0.1,0.2l1.5,5.8c-0.3,0.3-0.4,0.7-0.4,1.1V58h-1.5
			c-0.1,0-0.2,0-0.2,0.1c-0.1,0.1-0.1,0.2-0.1,0.3l0.8,7.8c0,0.2,0.2,0.3,0.3,0.3h9.2c0.2,0,0.3-0.1,0.3-0.3l0.8-7.8
			c0-0.1,0-0.2-0.1-0.3c-0.1-0.1-0.2-0.1-0.2-0.1h-1.5v-0.7c0-0.5-0.2-1-0.6-1.3L343.6,50.4L343.6,50.4z M341.9,58H341
			c-0.1,0-0.3,0.1-0.3,0.3c0,0.2-0.2,0.3-0.3,0.3H337c-0.2,0-0.3-0.1-0.3-0.3c0-0.2-0.2-0.3-0.3-0.3h-0.9v-0.7c0-0.5,0.4-1,0.9-1
			h4.7c0.5,0,0.9,0.4,0.9,1V58z M342.8,65.7h-8.4l-0.7-6.8h2.2c0.2,0.3,0.5,0.6,0.9,0.6h3.5c0.4,0,0.7-0.2,0.9-0.6h2.2L342.8,65.7z
			 M336.3,55.7c-0.2,0-0.4,0-0.6,0.1l-1.4-5.4h2.4l0.6,5.3H336.3z M338.6,14.4c7.6,0,13.8,6.6,13.8,14.8c0,2.4-0.5,4.8-1.6,6.9
			c0,0.1-3.8,8.3-7.7,13.5h-9.1c-3.9-5.2-7.6-13.4-7.7-13.5c-1-2.1-1.6-4.5-1.6-6.8C324.8,21,331,14.4,338.6,14.4z M337.9,55.6
			l-0.6-5.2h2.7l-0.3,5.2H337.9z M341,55.7h-0.7l0.3-5.3h2.4l-1.5,5.4C341.3,55.7,341.1,55.7,341,55.7z"/>
		<path class="st1" d="M404.9,43.7l0.1-0.2c4-5.3,7.9-13.7,7.9-13.8c1.1-2.2,1.7-4.7,1.7-7.3c0-8.7-6.6-15.7-14.6-15.7
			c-8.1,0-14.6,7-14.6,15.7c0,2.5,0.6,5,1.6,7.3c0,0.1,3.9,8.6,7.9,13.8l0.1,0.2l1.5,5.8c-0.3,0.3-0.4,0.7-0.4,1.1v0.7h-1.5
			c-0.1,0-0.2,0-0.2,0.1c-0.1,0.1-0.1,0.2-0.1,0.3l0.8,7.8c0,0.2,0.2,0.3,0.3,0.3h9.2c0.2,0,0.3-0.1,0.3-0.3l0.8-7.8
			c0-0.1,0-0.2-0.1-0.3c-0.1-0.1-0.2-0.1-0.2-0.1h-1.5v-0.7c0-0.5-0.2-1-0.6-1.3L404.9,43.7L404.9,43.7z M403.2,51.3h-0.9
			c-0.1,0-0.3,0.1-0.3,0.3c0,0.2-0.2,0.3-0.3,0.3h-3.4c-0.2,0-0.3-0.1-0.3-0.3c0-0.2-0.2-0.3-0.3-0.3h-0.9v-0.7c0-0.5,0.4-1,0.9-1
			h4.7c0.5,0,0.9,0.4,0.9,1V51.3z M404.2,59h-8.4l-0.7-6.8h2.2c0.2,0.3,0.5,0.6,0.9,0.6h3.5c0.4,0,0.7-0.2,0.9-0.6h2.2L404.2,59z
			 M397.7,49c-0.2,0-0.4,0-0.6,0.1l-1.4-5.4h2.4l0.6,5.3H397.7z M400,7.7c7.6,0,13.8,6.6,13.8,14.8c0,2.4-0.5,4.8-1.6,6.9
			c0,0.1-3.8,8.3-7.7,13.5h-9.1c-3.9-5.2-7.6-13.4-7.7-13.5c-1-2.1-1.6-4.5-1.6-6.8C386.2,14.3,392.4,7.7,400,7.7z M399.2,48.9
			l-0.6-5.2h2.7l-0.3,5.2H399.2z M402.4,49h-0.7l0.3-5.3h2.4l-1.5,5.4C402.7,49,402.5,49,402.4,49z"/>
		<path class="st1" d="M466.3,57.1l0.1-0.2c4-5.3,7.9-13.7,7.9-13.8c1.1-2.2,1.7-4.7,1.7-7.3c0-8.7-6.6-15.7-14.6-15.7
			c-8.1,0-14.6,7-14.6,15.7c0,2.5,0.6,5,1.6,7.3c0,0.1,3.9,8.6,7.9,13.8l0.1,0.2l1.5,5.8c-0.3,0.3-0.4,0.7-0.4,1.1v0.7H456
			c-0.1,0-0.2,0-0.2,0.1c-0.1,0.1-0.1,0.2-0.1,0.3l0.8,7.8c0,0.2,0.2,0.3,0.3,0.3h9.2c0.2,0,0.3-0.1,0.3-0.3l0.8-7.8
			c0-0.1,0-0.2-0.1-0.3c-0.1-0.1-0.2-0.1-0.2-0.1h-1.5V64c0-0.5-0.2-1-0.6-1.3L466.3,57.1L466.3,57.1z M464.6,64.7h-0.9
			c-0.1,0-0.3,0.1-0.3,0.3c0,0.2-0.2,0.3-0.3,0.3h-3.4c-0.2,0-0.3-0.1-0.3-0.3c0-0.2-0.2-0.3-0.3-0.3h-0.9V64c0-0.5,0.4-1,0.9-1h4.7
			c0.5,0,0.9,0.4,0.9,1V64.7z M465.6,72.4h-8.4l-0.7-6.8h2.2c0.2,0.3,0.5,0.6,0.9,0.6h3.5c0.4,0,0.7-0.2,0.9-0.6h2.2L465.6,72.4z
			 M459,62.4c-0.2,0-0.4,0-0.6,0.1l-1.4-5.4h2.4l0.6,5.3H459z M461.4,21c7.6,0,13.8,6.6,13.8,14.8c0,2.4-0.5,4.8-1.6,6.9
			c0,0.1-3.8,8.3-7.7,13.5h-9.1c-3.9-5.2-7.6-13.4-7.7-13.5c-1-2.1-1.6-4.5-1.6-6.8C447.6,27.7,453.8,21,461.4,21z M460.6,62.3
			l-0.6-5.2h2.7l-0.3,5.2H460.6z M463.7,62.4H463l0.3-5.3h2.4l-1.5,5.4C464,62.4,463.9,62.4,463.7,62.4z"/>
		<path class="st1" d="M527.7,50.4l0.1-0.2c4-5.3,7.9-13.7,7.9-13.8c1.1-2.2,1.7-4.7,1.7-7.3c0-8.7-6.6-15.7-14.6-15.7
			s-14.6,7-14.6,15.7c0,2.5,0.6,5,1.6,7.3c0,0.1,3.9,8.6,7.9,13.8l0.1,0.2l1.5,5.8c-0.3,0.3-0.4,0.7-0.4,1.1V58h-1.5
			c-0.1,0-0.2,0-0.2,0.1c-0.1,0.1-0.1,0.2-0.1,0.3l0.8,7.8c0,0.2,0.2,0.3,0.3,0.3h9.2c0.2,0,0.3-0.1,0.3-0.3l0.8-7.8
			c0-0.1,0-0.2-0.1-0.3c-0.1-0.1-0.2-0.1-0.2-0.1h-1.5v-0.7c0-0.5-0.2-1-0.6-1.3L527.7,50.4L527.7,50.4z M526,58h-0.9
			c-0.1,0-0.3,0.1-0.3,0.3c0,0.2-0.2,0.3-0.3,0.3h-3.4c-0.2,0-0.3-0.1-0.3-0.3c0-0.2-0.2-0.3-0.3-0.3h-0.9v-0.7c0-0.5,0.4-1,0.9-1
			h4.7c0.5,0,0.9,0.4,0.9,1V58z M526.9,65.7h-8.4l-0.7-6.8h2.2c0.2,0.3,0.5,0.6,0.9,0.6h3.5c0.4,0,0.7-0.2,0.9-0.6h2.2L526.9,65.7z
			 M520.4,55.7c-0.2,0-0.4,0-0.6,0.1l-1.4-5.4h2.4l0.6,5.3H520.4z M522.8,14.4c7.6,0,13.8,6.6,13.8,14.8c0,2.4-0.5,4.8-1.6,6.9
			c0,0.1-3.8,8.3-7.7,13.5h-9.1c-3.9-5.2-7.6-13.4-7.7-13.5c-1-2.1-1.6-4.5-1.6-6.8C509,21,515.1,14.4,522.8,14.4z M522,55.6
			l-0.6-5.2h2.7l-0.3,5.2H522z M525.1,55.7h-0.7l0.3-5.3h2.4l-1.5,5.4C525.4,55.7,525.3,55.7,525.1,55.7z"/>
		<path class="st1" d="M591.5,43.7l0.1-0.2c4-5.3,7.9-13.7,7.9-13.8c1.1-2.2,1.7-4.7,1.7-7.3c0-8.7-6.6-15.7-14.6-15.7
			s-14.6,7-14.6,15.7c0,2.5,0.6,5,1.6,7.3c0,0.1,3.9,8.6,7.9,13.8l0.1,0.2l1.5,5.8c-0.3,0.3-0.4,0.7-0.4,1.1v0.7h-1.5
			c-0.1,0-0.2,0-0.2,0.1c-0.1,0.1-0.1,0.2-0.1,0.3l0.8,7.8c0,0.2,0.2,0.3,0.3,0.3h9.2c0.2,0,0.3-0.1,0.3-0.3l0.8-7.8
			c0-0.1,0-0.2-0.1-0.3s-0.2-0.1-0.2-0.1h-1.5v-0.7c0-0.5-0.2-1-0.6-1.3L591.5,43.7L591.5,43.7z M589.8,51.3h-0.9
			c-0.1,0-0.3,0.1-0.3,0.3c0,0.2-0.2,0.3-0.3,0.3h-3.4c-0.2,0-0.3-0.1-0.3-0.3c0-0.2-0.2-0.3-0.3-0.3h-0.9v-0.7c0-0.5,0.4-1,0.9-1
			h4.7c0.5,0,0.9,0.4,0.9,1V51.3z M590.8,59h-8.4l-0.7-6.8h2.2c0.2,0.3,0.5,0.6,0.9,0.6h3.5c0.4,0,0.7-0.2,0.9-0.6h2.2L590.8,59z
			 M584.3,49c-0.2,0-0.4,0-0.6,0.1l-1.4-5.4h2.4l0.6,5.3H584.3z M586.6,7.7c7.6,0,13.8,6.6,13.8,14.8c0,2.4-0.5,4.8-1.6,6.9
			c0,0.1-3.8,8.3-7.7,13.5h-9.1c-3.9-5.2-7.6-13.4-7.7-13.5c-1-2.1-1.6-4.5-1.6-6.8C572.8,14.3,579,7.7,586.6,7.7z M585.8,48.9
			l-0.6-5.2h2.7l-0.3,5.2H585.8z M589,49h-0.7l0.3-5.3h2.4l-1.5,5.4C589.3,49,589.1,49,589,49z"/>
		<path class="st1" d="M650.4,57.1l0.1-0.2c4-5.3,7.9-13.7,7.9-13.8c1.1-2.2,1.7-4.7,1.7-7.3c0-8.7-6.6-15.7-14.6-15.7
			s-14.6,7-14.6,15.7c0,2.5,0.6,5,1.6,7.3c0,0.1,3.9,8.6,7.9,13.8l0.1,0.2l1.5,5.8c-0.3,0.3-0.4,0.7-0.4,1.1v0.7h-1.5
			c-0.1,0-0.2,0-0.2,0.1c-0.1,0.1-0.1,0.2-0.1,0.3l0.8,7.8c0,0.2,0.2,0.3,0.3,0.3h9.2c0.2,0,0.3-0.1,0.3-0.3l0.8-7.8
			c0-0.1,0-0.2-0.1-0.3c-0.1-0.1-0.2-0.1-0.2-0.1h-1.5V64c0-0.5-0.2-1-0.6-1.3L650.4,57.1L650.4,57.1z M648.7,64.7h-0.9
			c-0.1,0-0.3,0.1-0.3,0.3c0,0.2-0.2,0.3-0.3,0.3h-3.4c-0.2,0-0.3-0.1-0.3-0.3c0-0.2-0.2-0.3-0.3-0.3h-0.9V64c0-0.5,0.4-1,0.9-1h4.7
			c0.5,0,0.9,0.4,0.9,1V64.7z M649.7,72.4h-8.4l-0.7-6.8h2.2c0.2,0.3,0.5,0.6,0.9,0.6h3.5c0.4,0,0.7-0.2,0.9-0.6h2.2L649.7,72.4z
			 M643.2,62.4c-0.2,0-0.4,0-0.6,0.1l-1.4-5.4h2.4l0.6,5.3H643.2z M645.5,21c7.6,0,13.8,6.6,13.8,14.8c0,2.4-0.5,4.8-1.6,6.9
			c0,0.1-3.8,8.3-7.7,13.5H641c-3.9-5.2-7.6-13.4-7.7-13.5c-1-2.1-1.6-4.5-1.6-6.8C631.7,27.7,637.9,21,645.5,21z M644.7,62.3
			l-0.6-5.2h2.7l-0.3,5.2H644.7z M647.9,62.4h-0.7l0.3-5.3h2.4l-1.5,5.4C648.2,62.4,648,62.4,647.9,62.4z"/>
		<path class="st1" d="M711.8,50.4l0.1-0.2c4-5.3,7.9-13.7,7.9-13.8c1.1-2.2,1.7-4.7,1.7-7.3c0-8.7-6.6-15.7-14.6-15.7
			s-14.6,7-14.6,15.7c0,2.5,0.6,5,1.6,7.3c0,0.1,3.9,8.6,7.9,13.8l0.1,0.2l1.5,5.8c-0.3,0.3-0.4,0.7-0.4,1.1V58h-1.5
			c-0.1,0-0.2,0-0.2,0.1c-0.1,0.1-0.1,0.2-0.1,0.3l0.8,7.8c0,0.2,0.2,0.3,0.3,0.3h9.2c0.2,0,0.3-0.1,0.3-0.3l0.8-7.8
			c0-0.1,0-0.2-0.1-0.3c-0.1-0.1-0.2-0.1-0.2-0.1h-1.5v-0.7c0-0.5-0.2-1-0.6-1.3L711.8,50.4L711.8,50.4z M710.1,58h-0.9
			c-0.1,0-0.3,0.1-0.3,0.3c0,0.2-0.2,0.3-0.3,0.3h-3.4c-0.2,0-0.3-0.1-0.3-0.3c0-0.2-0.2-0.3-0.3-0.3h-0.9v-0.7c0-0.5,0.4-1,0.9-1
			h4.7c0.5,0,0.9,0.4,0.9,1V58z M711.1,65.7h-8.4l-0.7-6.8h2.2c0.2,0.3,0.5,0.6,0.9,0.6h3.5c0.4,0,0.7-0.2,0.9-0.6h2.2L711.1,65.7z
			 M704.5,55.7c-0.2,0-0.4,0-0.6,0.1l-1.4-5.4h2.4l0.6,5.3H704.5z M706.9,14.4c7.6,0,13.8,6.6,13.8,14.8c0,2.4-0.5,4.8-1.6,6.9
			c0,0.1-3.8,8.3-7.7,13.5h-9.1c-3.9-5.2-7.6-13.4-7.7-13.5c-1-2.1-1.6-4.5-1.6-6.8C693.1,21,699.3,14.4,706.9,14.4z M706.1,55.6
			l-0.6-5.2h2.7l-0.3,5.2H706.1z M709.2,55.7h-0.7l0.3-5.3h2.4l-1.5,5.4C709.5,55.7,709.4,55.7,709.2,55.7z"/>
		<path class="st1" d="M773.2,43.7l0.1-0.2c4-5.3,7.9-13.7,7.9-13.8c1.1-2.2,1.7-4.7,1.7-7.3c0-8.7-6.6-15.7-14.6-15.7
			s-14.6,7-14.6,15.7c0,2.5,0.6,5,1.6,7.3c0,0.1,3.9,8.6,7.9,13.8l0.1,0.2l1.5,5.8c-0.3,0.3-0.4,0.7-0.4,1.1v0.7h-1.5
			c-0.1,0-0.2,0-0.2,0.1c-0.1,0.1-0.1,0.2-0.1,0.3l0.8,7.8c0,0.2,0.2,0.3,0.3,0.3h9.2c0.2,0,0.3-0.1,0.3-0.3l0.8-7.8
			c0-0.1,0-0.2-0.1-0.3c-0.1-0.1-0.2-0.1-0.2-0.1h-1.5v-0.7c0-0.5-0.2-1-0.6-1.3L773.2,43.7L773.2,43.7z M771.5,51.3h-0.9
			c-0.1,0-0.3,0.1-0.3,0.3c0,0.2-0.2,0.3-0.3,0.3h-3.4c-0.2,0-0.3-0.1-0.3-0.3c0-0.2-0.2-0.3-0.3-0.3H765v-0.7c0-0.5,0.4-1,0.9-1
			h4.7c0.5,0,0.9,0.4,0.9,1V51.3z M772.4,59h-8.4l-0.7-6.8h2.2c0.2,0.3,0.5,0.6,0.9,0.6h3.5c0.4,0,0.7-0.2,0.9-0.6h2.2L772.4,59z
			 M765.9,49c-0.2,0-0.4,0-0.6,0.1l-1.4-5.4h2.4l0.6,5.3H765.9z M768.3,7.7c7.6,0,13.8,6.6,13.8,14.8c0,2.4-0.5,4.8-1.6,6.9
			c0,0.1-3.8,8.3-7.7,13.5h-9.1c-3.9-5.2-7.6-13.4-7.7-13.5c-1-2.1-1.6-4.5-1.6-6.8C754.4,14.3,760.6,7.7,768.3,7.7z M767.5,48.9
			l-0.6-5.2h2.7l-0.3,5.2H767.5z M770.6,49h-0.7l0.3-5.3h2.4l-1.5,5.4C770.9,49,770.8,49,770.6,49z"/>
		<path class="st1" d="M834.6,57.1l0.1-0.2c4-5.3,7.9-13.7,7.9-13.8c1.1-2.2,1.7-4.7,1.7-7.3c0-8.7-6.6-15.7-14.6-15.7
			c-8.1,0-14.6,7-14.6,15.7c0,2.5,0.6,5,1.6,7.3c0,0.1,3.9,8.6,7.9,13.8l0.1,0.2l1.5,5.8c-0.3,0.3-0.4,0.7-0.4,1.1v0.7h-1.5
			c-0.1,0-0.2,0-0.2,0.1c-0.1,0.1-0.1,0.2-0.1,0.3l0.8,7.8c0,0.2,0.2,0.3,0.3,0.3h9.2c0.2,0,0.3-0.1,0.3-0.3l0.8-7.8
			c0-0.1,0-0.2-0.1-0.3s-0.2-0.1-0.2-0.1h-1.5V64c0-0.5-0.2-1-0.6-1.3L834.6,57.1L834.6,57.1z M832.9,64.7H832
			c-0.1,0-0.3,0.1-0.3,0.3c0,0.2-0.2,0.3-0.3,0.3h-3.4c-0.2,0-0.3-0.1-0.3-0.3c0-0.2-0.2-0.3-0.3-0.3h-0.9V64c0-0.5,0.4-1,0.9-1h4.7
			c0.5,0,0.9,0.4,0.9,1V64.7z M833.8,72.4h-8.4l-0.7-6.8h2.2c0.2,0.3,0.5,0.6,0.9,0.6h3.5c0.4,0,0.7-0.2,0.9-0.6h2.2L833.8,72.4z
			 M827.3,62.4c-0.2,0-0.4,0-0.6,0.1l-1.4-5.4h2.4l0.6,5.3H827.3z M829.6,21c7.6,0,13.8,6.6,13.8,14.8c0,2.4-0.5,4.8-1.6,6.9
			c0,0.1-3.8,8.3-7.7,13.5h-9.1c-3.9-5.2-7.6-13.4-7.7-13.5c-1-2.1-1.6-4.5-1.6-6.8C815.8,27.7,822,21,829.6,21z M828.9,62.3
			l-0.6-5.2h2.7l-0.3,5.2H828.9z M832,62.4h-0.7l0.3-5.3h2.4l-1.5,5.4C832.3,62.4,832.1,62.4,832,62.4z"/>
		<path class="st1" d="M895.9,50.4l0.1-0.2c4-5.3,7.9-13.7,7.9-13.8c1.1-2.2,1.7-4.7,1.7-7.3c0-8.7-6.6-15.7-14.6-15.7
			c-8.1,0-14.6,7-14.6,15.7c0,2.5,0.6,5,1.6,7.3c0,0.1,3.9,8.6,7.9,13.8l0.1,0.2l1.5,5.8c-0.3,0.3-0.4,0.7-0.4,1.1V58h-1.5
			c-0.1,0-0.2,0-0.2,0.1c-0.1,0.1-0.1,0.2-0.1,0.3l0.8,7.8c0,0.2,0.2,0.3,0.3,0.3h9.2c0.2,0,0.3-0.1,0.3-0.3l0.8-7.8
			c0-0.1,0-0.2-0.1-0.3s-0.2-0.1-0.2-0.1h-1.5v-0.7c0-0.5-0.2-1-0.6-1.3L895.9,50.4L895.9,50.4z M894.2,58h-0.9
			c-0.1,0-0.3,0.1-0.3,0.3c0,0.2-0.2,0.3-0.3,0.3h-3.4c-0.2,0-0.3-0.1-0.3-0.3c0-0.2-0.2-0.3-0.3-0.3h-0.9v-0.7c0-0.5,0.4-1,0.9-1
			h4.7c0.5,0,0.9,0.4,0.9,1V58z M895.2,65.7h-8.4l-0.7-6.8h2.2c0.2,0.3,0.5,0.6,0.9,0.6h3.5c0.4,0,0.7-0.2,0.9-0.6h2.2L895.2,65.7z
			 M888.6,55.7c-0.2,0-0.4,0-0.6,0.1l-1.4-5.4h2.4l0.6,5.3H888.6z M891,14.4c7.6,0,13.8,6.6,13.8,14.8c0,2.4-0.5,4.8-1.6,6.9
			c0,0.1-3.8,8.3-7.7,13.5h-9.1c-3.9-5.2-7.6-13.4-7.7-13.5c-1-2.1-1.6-4.5-1.6-6.8C877.2,21,883.4,14.4,891,14.4z M890.2,55.6
			l-0.6-5.2h2.7l-0.3,5.2H890.2z M893.4,55.7h-0.7l0.3-5.3h2.4l-1.5,5.4C893.7,55.7,893.5,55.7,893.4,55.7z"/>
		<path class="st1" d="M957.3,43.7l0.1-0.2c4-5.3,7.9-13.7,7.9-13.8c1.1-2.2,1.7-4.7,1.7-7.3c0-8.7-6.6-15.7-14.6-15.7
			c-8.1,0-14.6,7-14.6,15.7c0,2.5,0.6,5,1.6,7.3c0,0.1,3.9,8.6,7.9,13.8l0.1,0.2l1.5,5.8c-0.3,0.3-0.4,0.7-0.4,1.1v0.7H947
			c-0.1,0-0.2,0-0.2,0.1c-0.1,0.1-0.1,0.2-0.1,0.3l0.8,7.8c0,0.2,0.2,0.3,0.3,0.3h9.2c0.2,0,0.3-0.1,0.3-0.3l0.8-7.8
			c0-0.1,0-0.2-0.1-0.3s-0.2-0.1-0.2-0.1h-1.5v-0.7c0-0.5-0.2-1-0.6-1.3L957.3,43.7L957.3,43.7z M955.6,51.3h-0.9
			c-0.1,0-0.3,0.1-0.3,0.3c0,0.2-0.2,0.3-0.3,0.3h-3.4c-0.2,0-0.3-0.1-0.3-0.3c0-0.2-0.2-0.3-0.3-0.3h-0.9v-0.7c0-0.5,0.4-1,0.9-1
			h4.7c0.5,0,0.9,0.4,0.9,1V51.3z M956.6,59h-8.4l-0.7-6.8h2.2c0.2,0.3,0.5,0.6,0.9,0.6h3.5c0.4,0,0.7-0.2,0.9-0.6h2.2L956.6,59z
			 M950,49c-0.2,0-0.4,0-0.6,0.1l-1.4-5.4h2.4l0.6,5.3H950z M952.4,7.7c7.6,0,13.8,6.6,13.8,14.8c0,2.4-0.5,4.8-1.6,6.9
			c0,0.1-3.8,8.3-7.7,13.5h-9.1c-3.9-5.2-7.6-13.4-7.7-13.5c-1-2.1-1.6-4.5-1.6-6.8C938.6,14.3,944.8,7.7,952.4,7.7z M951.6,48.9
			l-0.6-5.2h2.7l-0.3,5.2H951.6z M954.7,49H954l0.3-5.3h2.4l-1.5,5.4C955,49,954.9,49,954.7,49z"/>
		<path class="st1" d="M1018.7,57.1l0.1-0.2c4-5.3,7.9-13.7,7.9-13.8c1.1-2.2,1.7-4.7,1.7-7.3c0-8.7-6.6-15.7-14.6-15.7
			c-8.1,0-14.6,7-14.6,15.7c0,2.5,0.6,5,1.6,7.3c0,0.1,3.9,8.6,7.9,13.8l0.1,0.2l1.5,5.8c-0.3,0.3-0.4,0.7-0.4,1.1v0.7h-1.5
			c-0.1,0-0.2,0-0.2,0.1c-0.1,0.1-0.1,0.2-0.1,0.3l0.8,7.8c0,0.2,0.2,0.3,0.3,0.3h9.2c0.2,0,0.3-0.1,0.3-0.3l0.8-7.8
			c0-0.1,0-0.2-0.1-0.3s-0.2-0.1-0.2-0.1h-1.5V64c0-0.5-0.2-1-0.6-1.3L1018.7,57.1L1018.7,57.1z M1017,64.7h-0.9
			c-0.1,0-0.3,0.1-0.3,0.3c0,0.2-0.2,0.3-0.3,0.3h-3.4c-0.2,0-0.3-0.1-0.3-0.3c0-0.2-0.2-0.3-0.3-0.3h-0.9V64c0-0.5,0.4-1,0.9-1h4.7
			c0.5,0,0.9,0.4,0.9,1V64.7z M1017.9,72.4h-8.4l-0.7-6.8h2.2c0.2,0.3,0.5,0.6,0.9,0.6h3.5c0.4,0,0.7-0.2,0.9-0.6h2.2L1017.9,72.4z
			 M1011.4,62.4c-0.2,0-0.4,0-0.6,0.1l-1.4-5.4h2.4l0.6,5.3H1011.4z M1013.7,21c7.6,0,13.8,6.6,13.8,14.8c0,2.4-0.5,4.8-1.6,6.9
			c0,0.1-3.8,8.3-7.7,13.5h-9.1c-3.9-5.2-7.6-13.4-7.7-13.5c-1-2.1-1.6-4.5-1.6-6.8C999.9,27.7,1006.1,21,1013.7,21z M1013,62.3
			l-0.6-5.2h2.7l-0.3,5.2H1013z M1016.1,62.4h-0.7l0.3-5.3h2.4l-1.5,5.4C1016.4,62.4,1016.3,62.4,1016.1,62.4z"/>
		<path class="st1" d="M1077.6,50.4l0.1-0.2c4-5.3,7.9-13.7,7.9-13.8c1.1-2.2,1.7-4.7,1.7-7.3c0-8.7-6.6-15.7-14.6-15.7
			c-8.1,0-14.6,7-14.6,15.7c0,2.5,0.6,5,1.6,7.3c0,0.1,3.9,8.6,7.9,13.8l0.1,0.2l1.5,5.8c-0.3,0.3-0.4,0.7-0.4,1.1V58h-1.5
			c-0.1,0-0.2,0-0.2,0.1c-0.1,0.1-0.1,0.2-0.1,0.3l0.8,7.8c0,0.2,0.2,0.3,0.3,0.3h9.2c0.2,0,0.3-0.1,0.3-0.3l0.8-7.8
			c0-0.1,0-0.2-0.1-0.3c-0.1-0.1-0.2-0.1-0.2-0.1h-1.5v-0.7c0-0.5-0.2-1-0.6-1.3L1077.6,50.4L1077.6,50.4z M1075.9,58h-0.9
			c-0.1,0-0.3,0.1-0.3,0.3c0,0.2-0.2,0.3-0.3,0.3h-3.4c-0.2,0-0.3-0.1-0.3-0.3c0-0.2-0.2-0.3-0.3-0.3h-0.9v-0.7c0-0.5,0.4-1,0.9-1
			h4.7c0.5,0,0.9,0.4,0.9,1V58z M1076.8,65.7h-8.4l-0.7-6.8h2.2c0.2,0.3,0.5,0.6,0.9,0.6h3.5c0.4,0,0.7-0.2,0.9-0.6h2.2L1076.8,65.7
			z M1070.3,55.7c-0.2,0-0.4,0-0.6,0.1l-1.4-5.4h2.4l0.6,5.3H1070.3z M1072.7,14.4c7.6,0,13.8,6.6,13.8,14.8c0,2.4-0.5,4.8-1.6,6.9
			c0,0.1-3.8,8.3-7.7,13.5h-9.1c-3.9-5.2-7.6-13.4-7.7-13.5c-1-2.1-1.6-4.5-1.6-6.8C1058.8,21,1065,14.4,1072.7,14.4z M1071.9,55.6
			l-0.6-5.2h2.7l-0.3,5.2H1071.9z M1075,55.7h-0.7l0.3-5.3h2.4l-1.5,5.4C1075.3,55.7,1075.2,55.7,1075,55.7z"/>
		<path class="st1" d="M1140.2,43.7l0.1-0.2c4-5.3,7.9-13.7,7.9-13.8c1.1-2.2,1.7-4.7,1.7-7.3c0-8.7-6.6-15.7-14.6-15.7
			c-8.1,0-14.6,7-14.6,15.7c0,2.5,0.6,5,1.6,7.3c0,0.1,3.9,8.6,7.9,13.8l0.1,0.2l1.5,5.8c-0.3,0.3-0.4,0.7-0.4,1.1v0.7h-1.5
			c-0.1,0-0.2,0-0.2,0.1c-0.1,0.1-0.1,0.2-0.1,0.3l0.8,7.8c0,0.2,0.2,0.3,0.3,0.3h9.2c0.2,0,0.3-0.1,0.3-0.3l0.8-7.8
			c0-0.1,0-0.2-0.1-0.3c-0.1-0.1-0.2-0.1-0.2-0.1h-1.5v-0.7c0-0.5-0.2-1-0.6-1.3L1140.2,43.7L1140.2,43.7z M1138.5,51.3h-0.9
			c-0.1,0-0.3,0.1-0.3,0.3c0,0.2-0.2,0.3-0.3,0.3h-3.4c-0.2,0-0.3-0.1-0.3-0.3c0-0.2-0.2-0.3-0.3-0.3h-0.9v-0.7c0-0.5,0.4-1,0.9-1
			h4.7c0.5,0,0.9,0.4,0.9,1V51.3z M1139.4,59h-8.4l-0.7-6.8h2.2c0.2,0.3,0.5,0.6,0.9,0.6h3.5c0.4,0,0.7-0.2,0.9-0.6h2.2L1139.4,59z
			 M1132.9,49c-0.2,0-0.4,0-0.6,0.1l-1.4-5.4h2.4l0.6,5.3H1132.9z M1135.3,7.7c7.6,0,13.8,6.6,13.8,14.8c0,2.4-0.5,4.8-1.6,6.9
			c0,0.1-3.8,8.3-7.7,13.5h-9.1c-3.9-5.2-7.6-13.4-7.7-13.5c-1-2.1-1.6-4.5-1.6-6.8C1121.5,14.3,1127.6,7.7,1135.3,7.7z
			 M1134.5,48.9l-0.6-5.2h2.7l-0.3,5.2H1134.5z M1137.6,49h-0.7l0.3-5.3h2.4l-1.5,5.4C1137.9,49,1137.8,49,1137.6,49z"/>
		<path class="st1" d="M1200.3,57.1l0.1-0.2c4-5.3,7.9-13.7,7.9-13.8c1.1-2.2,1.7-4.7,1.7-7.3c0-8.7-6.6-15.7-14.6-15.7
			c-8.1,0-14.6,7-14.6,15.7c0,2.5,0.6,5,1.6,7.3c0,0.1,3.9,8.6,7.9,13.8l0.1,0.2l1.5,5.8c-0.3,0.3-0.4,0.7-0.4,1.1v0.7h-1.5
			c-0.1,0-0.2,0-0.2,0.1c-0.1,0.1-0.1,0.2-0.1,0.3l0.8,7.8c0,0.2,0.2,0.3,0.3,0.3h9.2c0.2,0,0.3-0.1,0.3-0.3l0.8-7.8
			c0-0.1,0-0.2-0.1-0.3s-0.2-0.1-0.2-0.1h-1.5V64c0-0.5-0.2-1-0.6-1.3L1200.3,57.1L1200.3,57.1z M1198.6,64.7h-0.9
			c-0.1,0-0.3,0.1-0.3,0.3c0,0.2-0.2,0.3-0.3,0.3h-3.4c-0.2,0-0.3-0.1-0.3-0.3c0-0.2-0.2-0.3-0.3-0.3h-0.9V64c0-0.5,0.4-1,0.9-1h4.7
			c0.5,0,0.9,0.4,0.9,1V64.7z M1199.6,72.4h-8.4l-0.7-6.8h2.2c0.2,0.3,0.5,0.6,0.9,0.6h3.5c0.4,0,0.7-0.2,0.9-0.6h2.2L1199.6,72.4z
			 M1193,62.4c-0.2,0-0.4,0-0.6,0.1l-1.4-5.4h2.4l0.6,5.3H1193z M1195.4,21c7.6,0,13.8,6.6,13.8,14.8c0,2.4-0.5,4.8-1.6,6.9
			c0,0.1-3.8,8.3-7.7,13.5h-9.1c-3.9-5.2-7.6-13.4-7.7-13.5c-1-2.1-1.6-4.5-1.6-6.8C1181.6,27.7,1187.8,21,1195.4,21z M1194.6,62.3
			l-0.6-5.2h2.7l-0.3,5.2H1194.6z M1197.8,62.4h-0.7l0.3-5.3h2.4l-1.5,5.4C1198.1,62.4,1197.9,62.4,1197.8,62.4z"/>
		<path class="st1" d="M1264.2,50.4l0.1-0.2c4-5.3,7.9-13.7,7.9-13.8c1.1-2.2,1.7-4.7,1.7-7.3c0-8.7-6.6-15.7-14.6-15.7
			c-8.1,0-14.6,7-14.6,15.7c0,2.5,0.6,5,1.6,7.3c0,0.1,3.9,8.6,7.9,13.8l0.1,0.2l1.5,5.8c-0.3,0.3-0.4,0.7-0.4,1.1V58h-1.5
			c-0.1,0-0.2,0-0.2,0.1c-0.1,0.1-0.1,0.2-0.1,0.3l0.8,7.8c0,0.2,0.2,0.3,0.3,0.3h9.2c0.2,0,0.3-0.1,0.3-0.3l0.8-7.8
			c0-0.1,0-0.2-0.1-0.3s-0.2-0.1-0.2-0.1h-1.5v-0.7c0-0.5-0.2-1-0.6-1.3L1264.2,50.4L1264.2,50.4z M1262.5,58h-0.9
			c-0.1,0-0.3,0.1-0.3,0.3c0,0.2-0.2,0.3-0.3,0.3h-3.4c-0.2,0-0.3-0.1-0.3-0.3c0-0.2-0.2-0.3-0.3-0.3h-0.9v-0.7c0-0.5,0.4-1,0.9-1
			h4.7c0.5,0,0.9,0.4,0.9,1V58z M1263.4,65.7h-8.4l-0.7-6.8h2.2c0.2,0.3,0.5,0.6,0.9,0.6h3.5c0.4,0,0.7-0.2,0.9-0.6h2.2L1263.4,65.7
			z M1256.9,55.7c-0.2,0-0.4,0-0.6,0.1l-1.4-5.4h2.4l0.6,5.3H1256.9z M1259.2,14.4c7.6,0,13.8,6.6,13.8,14.8c0,2.4-0.5,4.8-1.6,6.9
			c0,0.1-3.8,8.3-7.7,13.5h-9.1c-3.9-5.2-7.6-13.4-7.7-13.5c-1-2.1-1.6-4.5-1.6-6.8C1245.4,21,1251.6,14.4,1259.2,14.4z
			 M1258.5,55.6l-0.6-5.2h2.7l-0.3,5.2H1258.5z M1261.6,55.7h-0.7l0.3-5.3h2.4l-1.5,5.4C1261.9,55.7,1261.8,55.7,1261.6,55.7z"/>
		<path class="st1" d="M1324.3,43.7l0.1-0.2c4-5.3,7.9-13.7,7.9-13.8c1.1-2.2,1.7-4.7,1.7-7.3c0-8.7-6.6-15.7-14.6-15.7
			c-8.1,0-14.6,7-14.6,15.7c0,2.5,0.6,5,1.6,7.3c0,0.1,3.9,8.6,7.9,13.8l0.1,0.2l1.5,5.8c-0.3,0.3-0.4,0.7-0.4,1.1v0.7h-1.5
			c-0.1,0-0.2,0-0.2,0.1c-0.1,0.1-0.1,0.2-0.1,0.3l0.8,7.8c0,0.2,0.2,0.3,0.3,0.3h9.2c0.2,0,0.3-0.1,0.3-0.3l0.8-7.8
			c0-0.1,0-0.2-0.1-0.3c-0.1-0.1-0.2-0.1-0.2-0.1h-1.5v-0.7c0-0.5-0.2-1-0.6-1.3L1324.3,43.7L1324.3,43.7z M1322.6,51.3h-0.9
			c-0.1,0-0.3,0.1-0.3,0.3c0,0.2-0.2,0.3-0.3,0.3h-3.4c-0.2,0-0.3-0.1-0.3-0.3c0-0.2-0.2-0.3-0.3-0.3h-0.9v-0.7c0-0.5,0.4-1,0.9-1
			h4.7c0.5,0,0.9,0.4,0.9,1V51.3z M1323.6,59h-8.4l-0.7-6.8h2.2c0.2,0.3,0.5,0.6,0.9,0.6h3.5c0.4,0,0.7-0.2,0.9-0.6h2.2L1323.6,59z
			 M1317,49c-0.2,0-0.4,0-0.6,0.1l-1.4-5.4h2.4l0.6,5.3H1317z M1319.4,7.7c7.6,0,13.8,6.6,13.8,14.8c0,2.4-0.5,4.8-1.6,6.9
			c0,0.1-3.8,8.3-7.7,13.5h-9.1c-3.9-5.2-7.6-13.4-7.7-13.5c-1-2.1-1.6-4.5-1.6-6.8C1305.6,14.3,1311.8,7.7,1319.4,7.7z
			 M1318.6,48.9l-0.6-5.2h2.7l-0.3,5.2H1318.6z M1321.7,49h-0.7l0.3-5.3h2.4l-1.5,5.4C1322,49,1321.9,49,1321.7,49z"/>
		<path class="st1" d="M1388.2,57.1l0.1-0.2c4-5.3,7.9-13.7,7.9-13.8c1.1-2.2,1.7-4.7,1.7-7.3c0-8.7-6.6-15.7-14.6-15.7
			c-8.1,0-14.6,7-14.6,15.7c0,2.5,0.6,5,1.6,7.3c0,0.1,3.9,8.6,7.9,13.8l0.1,0.2l1.5,5.8c-0.3,0.3-0.4,0.7-0.4,1.1v0.7h-1.5
			c-0.1,0-0.2,0-0.2,0.1c-0.1,0.1-0.1,0.2-0.1,0.3l0.8,7.8c0,0.2,0.2,0.3,0.3,0.3h9.2c0.2,0,0.3-0.1,0.3-0.3l0.8-7.8
			c0-0.1,0-0.2-0.1-0.3c-0.1-0.1-0.2-0.1-0.2-0.1h-1.5V64c0-0.5-0.2-1-0.6-1.3L1388.2,57.1L1388.2,57.1z M1386.5,64.7h-0.9
			c-0.1,0-0.3,0.1-0.3,0.3c0,0.2-0.2,0.3-0.3,0.3h-3.4c-0.2,0-0.3-0.1-0.3-0.3c0-0.2-0.2-0.3-0.3-0.3h-0.9V64c0-0.5,0.4-1,0.9-1h4.7
			c0.5,0,0.9,0.4,0.9,1V64.7z M1387.4,72.4h-8.4l-0.7-6.8h2.2c0.2,0.3,0.5,0.6,0.9,0.6h3.5c0.4,0,0.7-0.2,0.9-0.6h2.2L1387.4,72.4z
			 M1380.9,62.4c-0.2,0-0.4,0-0.6,0.1l-1.4-5.4h2.4l0.6,5.3H1380.9z M1383.2,21c7.6,0,13.8,6.6,13.8,14.8c0,2.4-0.5,4.8-1.6,6.9
			c0,0.1-3.8,8.3-7.7,13.5h-9.1c-3.9-5.2-7.6-13.4-7.7-13.5c-1-2.1-1.6-4.5-1.6-6.8C1369.4,27.7,1375.6,21,1383.2,21z M1382.5,62.3
			l-0.6-5.2h2.7l-0.3,5.2H1382.5z M1385.6,62.4h-0.7l0.3-5.3h2.4l-1.5,5.4C1385.9,62.4,1385.7,62.4,1385.6,62.4z"/>
		<path class="st1" d="M1448.3,50.4l0.1-0.2c4-5.3,7.9-13.7,7.9-13.8c1.1-2.2,1.7-4.7,1.7-7.3c0-8.7-6.6-15.7-14.6-15.7
			s-14.6,7-14.6,15.7c0,2.5,0.6,5,1.6,7.3c0,0.1,3.9,8.6,7.9,13.8l0.1,0.2l1.5,5.8c-0.3,0.3-0.4,0.7-0.4,1.1V58h-1.5
			c-0.1,0-0.2,0-0.2,0.1c-0.1,0.1-0.1,0.2-0.1,0.3l0.8,7.8c0,0.2,0.2,0.3,0.3,0.3h9.2c0.2,0,0.3-0.1,0.3-0.3l0.8-7.8
			c0-0.1,0-0.2-0.1-0.3c-0.1-0.1-0.2-0.1-0.2-0.1h-1.5v-0.7c0-0.5-0.2-1-0.6-1.3L1448.3,50.4L1448.3,50.4z M1446.6,58h-0.9
			c-0.1,0-0.3,0.1-0.3,0.3c0,0.2-0.2,0.3-0.3,0.3h-3.4c-0.2,0-0.3-0.1-0.3-0.3c0-0.2-0.2-0.3-0.3-0.3h-0.9v-0.7c0-0.5,0.4-1,0.9-1
			h4.7c0.5,0,0.9,0.4,0.9,1V58z M1447.6,65.7h-8.4l-0.7-6.8h2.2c0.2,0.3,0.5,0.6,0.9,0.6h3.5c0.4,0,0.7-0.2,0.9-0.6h2.2L1447.6,65.7
			z M1441,55.7c-0.2,0-0.4,0-0.6,0.1l-1.4-5.4h2.4l0.6,5.3H1441z M1443.4,14.4c7.6,0,13.8,6.6,13.8,14.8c0,2.4-0.5,4.8-1.6,6.9
			c0,0.1-3.8,8.3-7.7,13.5h-9.1c-3.9-5.2-7.6-13.4-7.7-13.5c-1-2.1-1.6-4.5-1.6-6.8C1429.6,21,1435.8,14.4,1443.4,14.4z
			 M1442.6,55.6l-0.6-5.2h2.7l-0.3,5.2H1442.6z M1445.7,55.7h-0.7l0.3-5.3h2.4l-1.5,5.4C1446,55.7,1445.9,55.7,1445.7,55.7z"/>
		<path class="st1" d="M1509.7,43.7l0.1-0.2c4-5.3,7.9-13.7,7.9-13.8c1.1-2.2,1.7-4.7,1.7-7.3c0-8.7-6.6-15.7-14.6-15.7
			s-14.6,7-14.6,15.7c0,2.5,0.6,5,1.6,7.3c0,0.1,3.9,8.6,7.9,13.8l0.1,0.2l1.5,5.8c-0.3,0.3-0.4,0.7-0.4,1.1v0.7h-1.5
			c-0.1,0-0.2,0-0.2,0.1c-0.1,0.1-0.1,0.2-0.1,0.3l0.8,7.8c0,0.2,0.2,0.3,0.3,0.3h9.2c0.2,0,0.3-0.1,0.3-0.3l0.8-7.8
			c0-0.1,0-0.2-0.1-0.3c-0.1-0.1-0.2-0.1-0.2-0.1h-1.5v-0.7c0-0.5-0.2-1-0.6-1.3L1509.7,43.7L1509.7,43.7z M1508,51.3h-0.9
			c-0.1,0-0.3,0.1-0.3,0.3c0,0.2-0.2,0.3-0.3,0.3h-3.4c-0.2,0-0.3-0.1-0.3-0.3c0-0.2-0.2-0.3-0.3-0.3h-0.9v-0.7c0-0.5,0.4-1,0.9-1
			h4.7c0.5,0,0.9,0.4,0.9,1V51.3z M1508.9,59h-8.4l-0.7-6.8h2.2c0.2,0.3,0.5,0.6,0.9,0.6h3.5c0.4,0,0.7-0.2,0.9-0.6h2.2L1508.9,59z
			 M1502.4,49c-0.2,0-0.4,0-0.6,0.1l-1.4-5.4h2.4l0.6,5.3H1502.4z M1504.7,7.7c7.6,0,13.8,6.6,13.8,14.8c0,2.4-0.5,4.8-1.6,6.9
			c0,0.1-3.8,8.3-7.7,13.5h-9.1c-3.9-5.2-7.6-13.4-7.7-13.5c-1-2.1-1.6-4.5-1.6-6.8C1490.9,14.3,1497.1,7.7,1504.7,7.7z M1504,48.9
			l-0.6-5.2h2.7l-0.3,5.2H1504z M1507.1,49h-0.7l0.3-5.3h2.4l-1.5,5.4C1507.4,49,1507.3,49,1507.1,49z"/>
		<path class="st1" d="M1571.1,57.1l0.1-0.2c4-5.3,7.9-13.7,7.9-13.8c1.1-2.2,1.7-4.7,1.7-7.3c0-8.7-6.6-15.7-14.6-15.7
			c-8.1,0-14.6,7-14.6,15.7c0,2.5,0.6,5,1.6,7.3c0,0.1,3.9,8.6,7.9,13.8l0.1,0.2l1.5,5.8c-0.3,0.3-0.4,0.7-0.4,1.1v0.7h-1.5
			c-0.1,0-0.2,0-0.2,0.1c-0.1,0.1-0.1,0.2-0.1,0.3l0.8,7.8c0,0.2,0.2,0.3,0.3,0.3h9.2c0.2,0,0.3-0.1,0.3-0.3l0.8-7.8
			c0-0.1,0-0.2-0.1-0.3c-0.1-0.1-0.2-0.1-0.2-0.1h-1.5V64c0-0.5-0.2-1-0.6-1.3L1571.1,57.1L1571.1,57.1z M1569.4,64.7h-0.9
			c-0.1,0-0.3,0.1-0.3,0.3c0,0.2-0.2,0.3-0.3,0.3h-3.4c-0.2,0-0.3-0.1-0.3-0.3c0-0.2-0.2-0.3-0.3-0.3h-0.9V64c0-0.5,0.4-1,0.9-1h4.7
			c0.5,0,0.9,0.4,0.9,1V64.7z M1570.3,72.4h-8.4l-0.7-6.8h2.2c0.2,0.3,0.5,0.6,0.9,0.6h3.5c0.4,0,0.7-0.2,0.9-0.6h2.2L1570.3,72.4z
			 M1563.8,62.4c-0.2,0-0.4,0-0.6,0.1l-1.4-5.4h2.4l0.6,5.3H1563.8z M1566.1,21c7.6,0,13.8,6.6,13.8,14.8c0,2.4-0.5,4.8-1.6,6.9
			c0,0.1-3.8,8.3-7.7,13.5h-9.1c-3.9-5.2-7.6-13.4-7.7-13.5c-1-2.1-1.6-4.5-1.6-6.8C1552.3,27.7,1558.5,21,1566.1,21z M1565.4,62.3
			l-0.6-5.2h2.7l-0.3,5.2H1565.4z M1568.5,62.4h-0.7l0.3-5.3h2.4l-1.5,5.4C1568.8,62.4,1568.6,62.4,1568.5,62.4z"/>
		<path class="st1" d="M1632.4,50.4l0.1-0.2c4-5.3,7.9-13.7,7.9-13.8c1.1-2.2,1.7-4.7,1.7-7.3c0-8.7-6.6-15.7-14.6-15.7
			c-8.1,0-14.6,7-14.6,15.7c0,2.5,0.6,5,1.6,7.3c0,0.1,3.9,8.6,7.9,13.8l0.1,0.2l1.5,5.8c-0.3,0.3-0.4,0.7-0.4,1.1V58h-1.5
			c-0.1,0-0.2,0-0.2,0.1c-0.1,0.1-0.1,0.2-0.1,0.3l0.8,7.8c0,0.2,0.2,0.3,0.3,0.3h9.2c0.2,0,0.3-0.1,0.3-0.3l0.8-7.8
			c0-0.1,0-0.2-0.1-0.3c-0.1-0.1-0.2-0.1-0.2-0.1h-1.5v-0.7c0-0.5-0.2-1-0.6-1.3L1632.4,50.4L1632.4,50.4z M1630.7,58h-0.9
			c-0.1,0-0.3,0.1-0.3,0.3c0,0.2-0.2,0.3-0.3,0.3h-3.4c-0.2,0-0.3-0.1-0.3-0.3c0-0.2-0.2-0.3-0.3-0.3h-0.9v-0.7c0-0.5,0.4-1,0.9-1
			h4.7c0.5,0,0.9,0.4,0.9,1V58z M1631.7,65.7h-8.4l-0.7-6.8h2.2c0.2,0.3,0.5,0.6,0.9,0.6h3.5c0.4,0,0.7-0.2,0.9-0.6h2.2L1631.7,65.7
			z M1625.1,55.7c-0.2,0-0.4,0-0.6,0.1l-1.4-5.4h2.4l0.6,5.3H1625.1z M1627.5,14.4c7.6,0,13.8,6.6,13.8,14.8c0,2.4-0.5,4.8-1.6,6.9
			c0,0.1-3.8,8.3-7.7,13.5h-9.1c-3.9-5.2-7.6-13.4-7.7-13.5c-1-2.1-1.6-4.5-1.6-6.8C1613.7,21,1619.9,14.4,1627.5,14.4z
			 M1626.7,55.6l-0.6-5.2h2.7l-0.3,5.2H1626.7z M1629.8,55.7h-0.7l0.3-5.3h2.4l-1.5,5.4C1630.1,55.7,1630,55.7,1629.8,55.7z"/>
		<path class="st1" d="M1693.8,43.7l0.1-0.2c4-5.3,7.9-13.7,7.9-13.8c1.1-2.2,1.7-4.7,1.7-7.3c0-8.7-6.6-15.7-14.6-15.7
			s-14.6,7-14.6,15.7c0,2.5,0.6,5,1.6,7.3c0,0.1,3.9,8.6,7.9,13.8l0.1,0.2l1.5,5.8c-0.3,0.3-0.4,0.7-0.4,1.1v0.7h-1.5
			c-0.1,0-0.2,0-0.2,0.1c-0.1,0.1-0.1,0.2-0.1,0.3l0.8,7.8c0,0.2,0.2,0.3,0.3,0.3h9.2c0.2,0,0.3-0.1,0.3-0.3l0.8-7.8
			c0-0.1,0-0.2-0.1-0.3c-0.1-0.1-0.2-0.1-0.2-0.1h-1.5v-0.7c0-0.5-0.2-1-0.6-1.3L1693.8,43.7L1693.8,43.7z M1692.1,51.3h-0.9
			c-0.1,0-0.3,0.1-0.3,0.3c0,0.2-0.2,0.3-0.3,0.3h-3.4c-0.2,0-0.3-0.1-0.3-0.3c0-0.2-0.2-0.3-0.3-0.3h-0.9v-0.7c0-0.5,0.4-1,0.9-1
			h4.7c0.5,0,0.9,0.4,0.9,1V51.3z M1693.1,59h-8.4l-0.7-6.8h2.2c0.2,0.3,0.5,0.6,0.9,0.6h3.5c0.4,0,0.7-0.2,0.9-0.6h2.2L1693.1,59z
			 M1686.5,49c-0.2,0-0.4,0-0.6,0.1l-1.4-5.4h2.4l0.6,5.3H1686.5z M1688.9,7.7c7.6,0,13.8,6.6,13.8,14.8c0,2.4-0.5,4.8-1.6,6.9
			c0,0.1-3.8,8.3-7.7,13.5h-9.1c-3.9-5.2-7.6-13.4-7.7-13.5c-1-2.1-1.6-4.5-1.6-6.8C1675.1,14.3,1681.3,7.7,1688.9,7.7z
			 M1688.1,48.9l-0.6-5.2h2.7l-0.3,5.2H1688.1z M1691.2,49h-0.7l0.3-5.3h2.4l-1.5,5.4C1691.5,49,1691.4,49,1691.2,49z"/>
		<path class="st1" d="M1755.2,57.1l0.1-0.2c4-5.3,7.9-13.7,7.9-13.8c1.1-2.2,1.7-4.7,1.7-7.3c0-8.7-6.6-15.7-14.6-15.7
			s-14.6,7-14.6,15.7c0,2.5,0.6,5,1.6,7.3c0,0.1,3.9,8.6,7.9,13.8l0.1,0.2l1.5,5.8c-0.3,0.3-0.4,0.7-0.4,1.1v0.7h-1.5
			c-0.1,0-0.2,0-0.2,0.1c-0.1,0.1-0.1,0.2-0.1,0.3l0.8,7.8c0,0.2,0.2,0.3,0.3,0.3h9.2c0.2,0,0.3-0.1,0.3-0.3l0.8-7.8
			c0-0.1,0-0.2-0.1-0.3c-0.1-0.1-0.2-0.1-0.2-0.1h-1.5V64c0-0.5-0.2-1-0.6-1.3L1755.2,57.1L1755.2,57.1z M1753.5,64.7h-0.9
			c-0.1,0-0.3,0.1-0.3,0.3c0,0.2-0.2,0.3-0.3,0.3h-3.4c-0.2,0-0.3-0.1-0.3-0.3c0-0.2-0.2-0.3-0.3-0.3h-0.9V64c0-0.5,0.4-1,0.9-1h4.7
			c0.5,0,0.9,0.4,0.9,1V64.7z M1754.4,72.4h-8.4l-0.7-6.8h2.2c0.2,0.3,0.5,0.6,0.9,0.6h3.5c0.4,0,0.7-0.2,0.9-0.6h2.2L1754.4,72.4z
			 M1747.9,62.4c-0.2,0-0.4,0-0.6,0.1l-1.4-5.4h2.4l0.6,5.3H1747.9z M1750.2,21c7.6,0,13.8,6.6,13.8,14.8c0,2.4-0.5,4.8-1.6,6.9
			c0,0.1-3.8,8.3-7.7,13.5h-9.1c-3.9-5.2-7.6-13.4-7.7-13.5c-1-2.1-1.6-4.5-1.6-6.8C1736.4,27.7,1742.6,21,1750.2,21z M1749.5,62.3
			l-0.6-5.2h2.7l-0.3,5.2H1749.5z M1752.6,62.4h-0.7l0.3-5.3h2.4l-1.5,5.4C1752.9,62.4,1752.7,62.4,1752.6,62.4z"/>
		<path class="st1" d="M1816.6,50.4l0.1-0.2c4-5.3,7.9-13.7,7.9-13.8c1.1-2.2,1.7-4.7,1.7-7.3c0-8.7-6.6-15.7-14.6-15.7
			c-8.1,0-14.6,7-14.6,15.7c0,2.5,0.6,5,1.6,7.3c0,0.1,3.9,8.6,7.9,13.8l0.1,0.2l1.5,5.8c-0.3,0.3-0.4,0.7-0.4,1.1V58h-1.5
			c-0.1,0-0.2,0-0.2,0.1c-0.1,0.1-0.1,0.2-0.1,0.3l0.8,7.8c0,0.2,0.2,0.3,0.3,0.3h9.2c0.2,0,0.3-0.1,0.3-0.3l0.8-7.8
			c0-0.1,0-0.2-0.1-0.3c-0.1-0.1-0.2-0.1-0.2-0.1h-1.5v-0.7c0-0.5-0.2-1-0.6-1.3L1816.6,50.4L1816.6,50.4z M1814.9,58h-0.9
			c-0.1,0-0.3,0.1-0.3,0.3c0,0.2-0.2,0.3-0.3,0.3h-3.4c-0.2,0-0.3-0.1-0.3-0.3c0-0.2-0.2-0.3-0.3-0.3h-0.9v-0.7c0-0.5,0.4-1,0.9-1
			h4.7c0.5,0,0.9,0.4,0.9,1V58z M1815.8,65.7h-8.4l-0.7-6.8h2.2c0.2,0.3,0.5,0.6,0.9,0.6h3.5c0.4,0,0.7-0.2,0.9-0.6h2.2L1815.8,65.7
			z M1809.3,55.7c-0.2,0-0.4,0-0.6,0.1l-1.4-5.4h2.4l0.6,5.3H1809.3z M1811.6,14.4c7.6,0,13.8,6.6,13.8,14.8c0,2.4-0.5,4.8-1.6,6.9
			c0,0.1-3.8,8.3-7.7,13.5h-9.1c-3.9-5.2-7.6-13.4-7.7-13.5c-1-2.1-1.6-4.5-1.6-6.8C1797.8,21,1804,14.4,1811.6,14.4z M1810.9,55.6
			l-0.6-5.2h2.7l-0.3,5.2H1810.9z M1814,55.7h-0.7l0.3-5.3h2.4l-1.5,5.4C1814.3,55.7,1814.1,55.7,1814,55.7z"/>
		<path class="st1" d="M1877.9,43.7l0.1-0.2c4-5.3,7.9-13.7,7.9-13.8c1.1-2.2,1.7-4.7,1.7-7.3c0-8.7-6.6-15.7-14.6-15.7
			c-8.1,0-14.6,7-14.6,15.7c0,2.5,0.6,5,1.6,7.3c0,0.1,3.9,8.6,7.9,13.8l0.1,0.2l1.5,5.8c-0.3,0.3-0.4,0.7-0.4,1.1v0.7h-1.5
			c-0.1,0-0.2,0-0.2,0.1c-0.1,0.1-0.1,0.2-0.1,0.3l0.8,7.8c0,0.2,0.2,0.3,0.3,0.3h9.2c0.2,0,0.3-0.1,0.3-0.3l0.8-7.8
			c0-0.1,0-0.2-0.1-0.3c-0.1-0.1-0.2-0.1-0.2-0.1h-1.5v-0.7c0-0.5-0.2-1-0.6-1.3L1877.9,43.7L1877.9,43.7z M1876.2,51.3h-0.9
			c-0.1,0-0.3,0.1-0.3,0.3c0,0.2-0.2,0.3-0.3,0.3h-3.4c-0.2,0-0.3-0.1-0.3-0.3c0-0.2-0.2-0.3-0.3-0.3h-0.9v-0.7c0-0.5,0.4-1,0.9-1
			h4.7c0.5,0,0.9,0.4,0.9,1V51.3z M1877.2,59h-8.4l-0.7-6.8h2.2c0.2,0.3,0.5,0.6,0.9,0.6h3.5c0.4,0,0.7-0.2,0.9-0.6h2.2L1877.2,59z
			 M1870.6,49c-0.2,0-0.4,0-0.6,0.1l-1.4-5.4h2.4l0.6,5.3H1870.6z M1873,7.7c7.6,0,13.8,6.6,13.8,14.8c0,2.4-0.5,4.8-1.6,6.9
			c0,0.1-3.8,8.3-7.7,13.5h-9.1c-3.9-5.2-7.6-13.4-7.7-13.5c-1-2.1-1.6-4.5-1.6-6.8C1859.2,14.3,1865.4,7.7,1873,7.7z M1872.2,48.9
			l-0.6-5.2h2.7l-0.3,5.2H1872.2z M1875.3,49h-0.7l0.3-5.3h2.4l-1.5,5.4C1875.6,49,1875.5,49,1875.3,49z"/>
		<path class="st1" d="M1939.3,57.1l0.1-0.2c4-5.3,7.9-13.7,7.9-13.8c1.1-2.2,1.7-4.7,1.7-7.3c0-8.7-6.6-15.7-14.6-15.7
			s-14.6,7-14.6,15.7c0,2.5,0.6,5,1.6,7.3c0,0.1,3.9,8.6,7.9,13.8l0.1,0.2l1.5,5.8c-0.3,0.3-0.4,0.7-0.4,1.1v0.7h-1.5
			c-0.1,0-0.2,0-0.2,0.1c-0.1,0.1-0.1,0.2-0.1,0.3l0.8,7.8c0,0.2,0.2,0.3,0.3,0.3h9.2c0.2,0,0.3-0.1,0.3-0.3l0.8-7.8
			c0-0.1,0-0.2-0.1-0.3c-0.1-0.1-0.2-0.1-0.2-0.1h-1.5V64c0-0.5-0.2-1-0.6-1.3L1939.3,57.1L1939.3,57.1z M1937.6,64.7h-0.9
			c-0.1,0-0.3,0.1-0.3,0.3c0,0.2-0.2,0.3-0.3,0.3h-3.4c-0.2,0-0.3-0.1-0.3-0.3c0-0.2-0.2-0.3-0.3-0.3h-0.9V64c0-0.5,0.4-1,0.9-1h4.7
			c0.5,0,0.9,0.4,0.9,1V64.7z M1938.6,72.4h-8.4l-0.7-6.8h2.2c0.2,0.3,0.5,0.6,0.9,0.6h3.5c0.4,0,0.7-0.2,0.9-0.6h2.2L1938.6,72.4z
			 M1932,62.4c-0.2,0-0.4,0-0.6,0.1l-1.4-5.4h2.4l0.6,5.3H1932z M1934.4,21c7.6,0,13.8,6.6,13.8,14.8c0,2.4-0.5,4.8-1.6,6.9
			c0,0.1-3.8,8.3-7.7,13.5h-9.1c-3.9-5.2-7.6-13.4-7.7-13.5c-1-2.1-1.6-4.5-1.6-6.8C1920.6,27.7,1926.8,21,1934.4,21z M1933.6,62.3
			l-0.6-5.2h2.7l-0.3,5.2H1933.6z M1936.7,62.4h-0.7l0.3-5.3h2.4l-1.5,5.4C1937,62.4,1936.9,62.4,1936.7,62.4z"/>
	</g>
	<g class="st0">
		<path class="st1" d="M46.9,43.7l0.1-0.2c4-5.3,7.9-13.7,7.9-13.8c1.1-2.2,1.7-4.7,1.7-7.3C56.6,13.8,50,6.8,42,6.8
			c-8.1,0-14.6,7-14.6,15.7c0,2.5,0.6,5,1.6,7.3c0,0.1,3.9,8.6,7.9,13.8l0.1,0.2l1.5,5.8c-0.3,0.3-0.4,0.7-0.4,1.1v0.7h-1.5
			c-0.1,0-0.2,0-0.2,0.1c-0.1,0.1-0.1,0.2-0.1,0.3l0.8,7.8c0,0.2,0.2,0.3,0.3,0.3h9.2c0.2,0,0.3-0.1,0.3-0.3l0.8-7.8
			c0-0.1,0-0.2-0.1-0.3c-0.1-0.1-0.2-0.1-0.2-0.1h-1.5v-0.7c0-0.5-0.2-1-0.6-1.3L46.9,43.7L46.9,43.7z M45.2,51.3h-0.9
			c-0.1,0-0.3,0.1-0.3,0.3c0,0.2-0.2,0.3-0.3,0.3h-3.4c-0.2,0-0.3-0.1-0.3-0.3c0-0.2-0.2-0.3-0.3-0.3h-0.9v-0.7c0-0.5,0.4-1,0.9-1
			h4.7c0.5,0,0.9,0.4,0.9,1V51.3z M46.1,59h-8.4l-0.7-6.8h2.2c0.2,0.3,0.5,0.6,0.9,0.6h3.5c0.4,0,0.7-0.2,0.9-0.6h2.2L46.1,59z
			 M39.6,49c-0.2,0-0.4,0-0.6,0.1l-1.4-5.4H40l0.6,5.3H39.6z M42,7.7c7.6,0,13.8,6.6,13.8,14.8c0,2.4-0.5,4.8-1.6,6.9
			c0,0.1-3.8,8.3-7.7,13.5h-9.1c-3.9-5.2-7.6-13.4-7.7-13.5c-1-2.1-1.6-4.5-1.6-6.8C28.2,14.3,34.3,7.7,42,7.7z M41.2,48.9l-0.6-5.2
			h2.7L43,48.9H41.2z M44.3,49h-0.7l0.3-5.3h2.4l-1.5,5.4C44.6,49,44.5,49,44.3,49z"/>
		<path class="st1" d="M108.3,57.1l0.1-0.2c4-5.3,7.9-13.7,7.9-13.8c1.1-2.2,1.7-4.7,1.7-7.3c0-8.7-6.6-15.7-14.6-15.7
			c-8.1,0-14.6,7-14.6,15.7c0,2.5,0.6,5,1.6,7.3c0,0.1,3.9,8.6,7.9,13.8l0.1,0.2l1.5,5.8c-0.3,0.3-0.4,0.7-0.4,1.1v0.7h-1.5
			c-0.1,0-0.2,0-0.2,0.1c-0.1,0.1-0.1,0.2-0.1,0.3l0.8,7.8c0,0.2,0.2,0.3,0.3,0.3h9.2c0.2,0,0.3-0.1,0.3-0.3l0.8-7.8
			c0-0.1,0-0.2-0.1-0.3c-0.1-0.1-0.2-0.1-0.2-0.1h-1.5V64c0-0.5-0.2-1-0.6-1.3L108.3,57.1L108.3,57.1z M106.6,64.7h-0.9
			c-0.1,0-0.3,0.1-0.3,0.3c0,0.2-0.2,0.3-0.3,0.3h-3.4c-0.2,0-0.3-0.1-0.3-0.3c0-0.2-0.2-0.3-0.3-0.3h-0.9V64c0-0.5,0.4-1,0.9-1h4.7
			c0.5,0,0.9,0.4,0.9,1V64.7z M107.5,72.4h-8.4l-0.7-6.8h2.2c0.2,0.3,0.5,0.6,0.9,0.6h3.5c0.4,0,0.7-0.2,0.9-0.6h2.2L107.5,72.4z
			 M101,62.4c-0.2,0-0.4,0-0.6,0.1L99,57.1h2.4l0.6,5.3H101z M103.3,21c7.6,0,13.8,6.6,13.8,14.8c0,2.4-0.5,4.8-1.6,6.9
			c0,0.1-3.8,8.3-7.7,13.5h-9.1c-3.9-5.2-7.6-13.4-7.7-13.5c-1-2.1-1.6-4.5-1.6-6.8C89.5,27.7,95.7,21,103.3,21z M102.6,62.3
			l-0.6-5.2h2.7l-0.3,5.2H102.6z M105.7,62.4H105l0.3-5.3h2.4l-1.5,5.4C106,62.4,105.8,62.4,105.7,62.4z"/>
		<path class="st1" d="M169.6,50.4l0.1-0.2c4-5.3,7.9-13.7,7.9-13.8c1.1-2.2,1.7-4.7,1.7-7.3c0-8.7-6.6-15.7-14.6-15.7
			c-8.1,0-14.6,7-14.6,15.7c0,2.5,0.6,5,1.6,7.3c0,0.1,3.9,8.6,7.9,13.8l0.1,0.2l1.5,5.8c-0.3,0.3-0.4,0.7-0.4,1.1V58h-1.5
			c-0.1,0-0.2,0-0.2,0.1c-0.1,0.1-0.1,0.2-0.1,0.3l0.8,7.8c0,0.2,0.2,0.3,0.3,0.3h9.2c0.2,0,0.3-0.1,0.3-0.3l0.8-7.8
			c0-0.1,0-0.2-0.1-0.3c-0.1-0.1-0.2-0.1-0.2-0.1h-1.5v-0.7c0-0.5-0.2-1-0.6-1.3L169.6,50.4L169.6,50.4z M167.9,58H167
			c-0.1,0-0.3,0.1-0.3,0.3c0,0.2-0.2,0.3-0.3,0.3H163c-0.2,0-0.3-0.1-0.3-0.3c0-0.2-0.2-0.3-0.3-0.3h-0.9v-0.7c0-0.5,0.4-1,0.9-1
			h4.7c0.5,0,0.9,0.4,0.9,1V58z M168.9,65.7h-8.4l-0.7-6.8h2.2c0.2,0.3,0.5,0.6,0.9,0.6h3.5c0.4,0,0.7-0.2,0.9-0.6h2.2L168.9,65.7z
			 M162.4,55.7c-0.2,0-0.4,0-0.6,0.1l-1.4-5.4h2.4l0.6,5.3H162.4z M164.7,14.4c7.6,0,13.8,6.6,13.8,14.8c0,2.4-0.5,4.8-1.6,6.9
			c0,0.1-3.8,8.3-7.7,13.5h-9.1c-3.9-5.2-7.6-13.4-7.7-13.5c-1-2.1-1.6-4.5-1.6-6.8C150.9,21,157.1,14.4,164.7,14.4z M163.9,55.6
			l-0.6-5.2h2.7l-0.3,5.2H163.9z M167.1,55.7h-0.7l0.3-5.3h2.4l-1.5,5.4C167.4,55.7,167.2,55.7,167.1,55.7z"/>
		<path class="st1" d="M231,43.7l0.1-0.2c4-5.3,7.9-13.7,7.9-13.8c1.1-2.2,1.7-4.7,1.7-7.3c0-8.7-6.6-15.7-14.6-15.7
			c-8.1,0-14.6,7-14.6,15.7c0,2.5,0.6,5,1.6,7.3c0,0.1,3.9,8.6,7.9,13.8l0.1,0.2l1.5,5.8c-0.3,0.3-0.4,0.7-0.4,1.1v0.7h-1.5
			c-0.1,0-0.2,0-0.2,0.1c-0.1,0.1-0.1,0.2-0.1,0.3l0.8,7.8c0,0.2,0.2,0.3,0.3,0.3h9.2c0.2,0,0.3-0.1,0.3-0.3l0.8-7.8
			c0-0.1,0-0.2-0.1-0.3c-0.1-0.1-0.2-0.1-0.2-0.1H230v-0.7c0-0.5-0.2-1-0.6-1.3L231,43.7L231,43.7z M229.3,51.3h-0.9
			c-0.1,0-0.3,0.1-0.3,0.3c0,0.2-0.2,0.3-0.3,0.3h-3.4c-0.2,0-0.3-0.1-0.3-0.3c0-0.2-0.2-0.3-0.3-0.3h-0.9v-0.7c0-0.5,0.4-1,0.9-1
			h4.7c0.5,0,0.9,0.4,0.9,1V51.3z M230.3,59h-8.4l-0.7-6.8h2.2c0.2,0.3,0.5,0.6,0.9,0.6h3.5c0.4,0,0.7-0.2,0.9-0.6h2.2L230.3,59z
			 M223.7,49c-0.2,0-0.4,0-0.6,0.1l-1.4-5.4h2.4l0.6,5.3H223.7z M226.1,7.7c7.6,0,13.8,6.6,13.8,14.8c0,2.4-0.5,4.8-1.6,6.9
			c0,0.1-3.8,8.3-7.7,13.5h-9.1c-3.9-5.2-7.6-13.4-7.7-13.5c-1-2.1-1.6-4.5-1.6-6.8C212.3,14.3,218.5,7.7,226.1,7.7z M225.3,48.9
			l-0.6-5.2h2.7l-0.3,5.2H225.3z M228.4,49h-0.7l0.3-5.3h2.4l-1.5,5.4C228.7,49,228.6,49,228.4,49z"/>
		<path class="st1" d="M292.4,57.1l0.1-0.2c4-5.3,7.9-13.7,7.9-13.8c1.1-2.2,1.7-4.7,1.7-7.3c0-8.7-6.6-15.7-14.6-15.7
			c-8.1,0-14.6,7-14.6,15.7c0,2.5,0.6,5,1.6,7.3c0,0.1,3.9,8.6,7.9,13.8l0.1,0.2l1.5,5.8c-0.3,0.3-0.4,0.7-0.4,1.1v0.7H282
			c-0.1,0-0.2,0-0.2,0.1c-0.1,0.1-0.1,0.2-0.1,0.3l0.8,7.8c0,0.2,0.2,0.3,0.3,0.3h9.2c0.2,0,0.3-0.1,0.3-0.3l0.8-7.8
			c0-0.1,0-0.2-0.1-0.3c-0.1-0.1-0.2-0.1-0.2-0.1h-1.5V64c0-0.5-0.2-1-0.6-1.3L292.4,57.1L292.4,57.1z M290.7,64.7h-0.9
			c-0.1,0-0.3,0.1-0.3,0.3c0,0.2-0.2,0.3-0.3,0.3h-3.4c-0.2,0-0.3-0.1-0.3-0.3c0-0.2-0.2-0.3-0.3-0.3h-0.9V64c0-0.5,0.4-1,0.9-1h4.7
			c0.5,0,0.9,0.4,0.9,1V64.7z M291.6,72.4h-8.4l-0.7-6.8h2.2c0.2,0.3,0.5,0.6,0.9,0.6h3.5c0.4,0,0.7-0.2,0.9-0.6h2.2L291.6,72.4z
			 M285.1,62.4c-0.2,0-0.4,0-0.6,0.1l-1.4-5.4h2.4l0.6,5.3H285.1z M287.5,21c7.6,0,13.8,6.6,13.8,14.8c0,2.4-0.5,4.8-1.6,6.9
			c0,0.1-3.8,8.3-7.7,13.5h-9.1c-3.9-5.2-7.6-13.4-7.7-13.5c-1-2.1-1.6-4.5-1.6-6.8C273.7,27.7,279.8,21,287.5,21z M286.7,62.3
			l-0.6-5.2h2.7l-0.3,5.2H286.7z M289.8,62.4h-0.7l0.3-5.3h2.4l-1.5,5.4C290.1,62.4,290,62.4,289.8,62.4z"/>
	</g>
</g>
</svg>
