<?xml version="1.0" encoding="utf-8"?>
<!-- Generator: Adobe Illustrator 23.0.6, SVG Export Plug-In . SVG Version: 6.00 Build 0)  -->
<svg version="1.1" id="Capa_1" xmlns="http://www.w3.org/2000/svg" xmlns:xlink="http://www.w3.org/1999/xlink" x="0px" y="0px"
	 viewBox="0 0 129.2 110.3" style="enable-background:new 0 0 129.2 110.3;" xml:space="preserve">
<style type="text/css">
	.st0{fill:#FFFFFF;stroke:url(#SVGID_1_);stroke-width:0.415;stroke-miterlimit:10;}
	.st1{fill:#FFFFFF;}
	.st2{fill:#FFFFFF;stroke:url(#SVGID_2_);stroke-width:0.415;stroke-miterlimit:10;}
	.st3{fill:#FFFFFF;stroke:url(#SVGID_3_);stroke-width:0.415;stroke-miterlimit:10;}
	.st4{fill:#FFFFFF;stroke:url(#SVGID_4_);stroke-width:0.415;stroke-miterlimit:10;}
	.st5{fill:#FFFFFF;stroke:url(#SVGID_5_);stroke-width:0.415;stroke-miterlimit:10;}
	.st6{fill:#FFFFFF;stroke:url(#SVGID_6_);stroke-width:0.415;stroke-miterlimit:10;}
	.st7{fill:#FFFFFF;stroke:url(#SVGID_7_);stroke-width:0.415;stroke-miterlimit:10;}
	.st8{fill:#FFFFFF;stroke:url(#SVGID_8_);stroke-width:0.415;stroke-miterlimit:10;}
	.st9{fill:#FFFFFF;stroke:url(#SVGID_9_);stroke-width:0.415;stroke-miterlimit:10;}
	.st10{clip-path:url(#SVGID_11_);}
	.st11{clip-path:url(#SVGID_13_);}
	.st12{clip-path:url(#SVGID_17_);fill:url(#SVGID_18_);}
	.st13{clip-path:url(#SVGID_20_);fill:url(#SVGID_21_);}
	.st14{clip-path:url(#SVGID_23_);fill:url(#SVGID_24_);}
</style>
<image style="overflow:visible;" width="2048" height="1365" xlink:href="BCF93EFA.jpg"  transform="matrix(1 0 0 1 -8396.2998 -9742.0254)">
</image>
<g>
	<g>
		<linearGradient id="SVGID_1_" gradientUnits="userSpaceOnUse" x1="51.9804" y1="100.7758" x2="69.6441" y2="100.7758">
			<stop  offset="0" style="stop-color:#4478B1"/>
			<stop  offset="4.571825e-02" style="stop-color:#3F6CA2"/>
			<stop  offset="0.1353" style="stop-color:#385B8C"/>
			<stop  offset="0.2403" style="stop-color:#324D7B"/>
			<stop  offset="0.3686" style="stop-color:#2E436F"/>
			<stop  offset="0.5453" style="stop-color:#2C3E68"/>
			<stop  offset="1" style="stop-color:#2B3C66"/>
		</linearGradient>
		<path class="st0" d="M63.4,100.4c-0.6,1.4-1.1,2.6-1.5,3.7c-0.3,0.7-0.7,1.3-1.6,1.3c-0.8,0-1.2-0.6-1.5-1.3
			c-0.8-1.9-1.5-3.9-2.3-5.8c-0.2-0.5-0.1-0.6,0.4-0.6c1.4,0,1.4-0.1,2,1.3c0.5,1.2,0.9,2.3,1.5,3.7c0.5-1.2,0.9-2.3,1.3-3.3
			c0.3-0.8,0.6-1.8,1.7-1.8c1.1,0,1.3,0.9,1.7,1.7c0.5,1.2,1,2.4,1.5,3.7c1-1.7,1.3-3.3,0.7-5.1c-1.2-3.8-5.3-5.5-9-3.6
			c-3,1.5-4.6,4.8-3.9,8.1c0.7,3.3,3.6,5.7,6.9,5.9c0.4,0,0.8-0.1,1.2-0.1c0.3,0,1-0.5,0.9,0.3c0,0.6,0.6,1.5-0.7,1.7
			c-5,0.6-9.5-2.8-10.3-7.8c-0.8-4.9,2.7-9.7,7.6-10.6c3.3-0.6,6.6,0.9,8.3,3.8c1.7,2.7,1.5,6.4-0.3,9c-0.4,0.6-0.9,1.1-1.7,1
			c-0.8-0.1-1.1-0.7-1.4-1.3C64.4,102.9,63.9,101.7,63.4,100.4z"/>
		<g>
			<path class="st1" d="M78.4,102c0,0.5-0.1,1.1-0.2,1.5c-0.1,0.5-0.3,0.9-0.6,1.3c-0.3,0.4-0.7,0.7-1.1,0.9c-0.5,0.2-1,0.3-1.6,0.3
				c-0.6,0-1.2-0.1-1.6-0.3c-0.5-0.2-0.8-0.5-1.1-0.9c-0.3-0.4-0.5-0.8-0.6-1.3c-0.1-0.5-0.2-1-0.2-1.5c0-0.5,0.1-1.1,0.2-1.6
				c0.2-0.5,0.4-0.9,0.7-1.3c0.3-0.4,0.7-0.7,1.1-0.9c0.5-0.2,1-0.3,1.6-0.3c0.6,0,1.2,0.1,1.6,0.3c0.4,0.2,0.8,0.5,1.1,0.9
				c0.3,0.4,0.5,0.8,0.6,1.3C78.3,100.9,78.4,101.4,78.4,102z M77.3,102c0-0.4,0-0.8-0.1-1.2c-0.1-0.4-0.2-0.7-0.4-1.1
				c-0.2-0.3-0.4-0.6-0.8-0.8c-0.3-0.2-0.8-0.3-1.3-0.3c-0.5,0-0.9,0.1-1.2,0.3c-0.3,0.2-0.6,0.4-0.8,0.8c-0.2,0.3-0.3,0.7-0.4,1.1
				c-0.1,0.4-0.1,0.8-0.1,1.2c0,0.4,0,0.8,0.1,1.2c0.1,0.4,0.2,0.7,0.4,1.1c0.2,0.3,0.4,0.6,0.8,0.8c0.3,0.2,0.7,0.3,1.2,0.3
				c0.5,0,1-0.1,1.3-0.3c0.3-0.2,0.6-0.5,0.8-0.8c0.2-0.3,0.3-0.7,0.4-1.1C77.3,102.8,77.3,102.4,77.3,102z"/>
			<path class="st1" d="M81.6,98.9c0.1-0.1,0.2-0.2,0.3-0.3c0.1-0.1,0.2-0.2,0.4-0.3c0.2-0.1,0.3-0.2,0.5-0.3
				c0.2-0.1,0.4-0.1,0.6-0.1c0.1,0,0.2,0,0.4,0c0.1,0,0.3,0,0.4,0.1c0.1,0,0.2,0.1,0.3,0.2c0.1,0.1,0.1,0.2,0.1,0.3
				c0,0.1,0,0.3-0.1,0.4c-0.1,0.1-0.1,0.2-0.2,0.3c-0.1-0.1-0.3-0.2-0.4-0.3c-0.2-0.1-0.4-0.1-0.6-0.1c-0.2,0-0.4,0-0.6,0.1
				c-0.2,0.1-0.4,0.2-0.5,0.3c-0.2,0.1-0.3,0.3-0.4,0.4c-0.1,0.2-0.1,0.3-0.1,0.5v5.7h-1V98h0.1c0.2,0,0.4,0.1,0.6,0.2
				C81.5,98.4,81.6,98.6,81.6,98.9z"/>
			<path class="st1" d="M86.1,105.8V94c0.1,0,0.1,0,0.1,0c0,0,0,0,0.1,0c0.1,0,0.1,0,0.2,0c0.1,0,0.2,0.1,0.3,0.1
				c0.1,0.1,0.2,0.1,0.2,0.3c0.1,0.1,0.1,0.3,0.1,0.5v11H86.1z M87.6,101.7v-0.5l2.8-2.7c0.2-0.2,0.3-0.3,0.4-0.4
				c0.1-0.1,0.3-0.1,0.4-0.1c0.1,0,0.2,0,0.3,0c0.1,0,0.1,0.1,0.2,0.1l0.2,0.1l-3.3,3.2l3.8,4.4c-0.2,0.1-0.3,0.1-0.5,0.1
				c-0.4,0-0.8-0.2-1.1-0.6L87.6,101.7z"/>
			<path class="st1" d="M94,109.5V98h0.1c0.2,0,0.4,0.1,0.6,0.2c0.2,0.1,0.3,0.3,0.3,0.7c0.1-0.1,0.2-0.2,0.3-0.3
				c0.1-0.1,0.3-0.2,0.5-0.3c0.2-0.1,0.4-0.2,0.7-0.3c0.3-0.1,0.5-0.1,0.9-0.1c0.5,0,0.9,0.1,1.3,0.2c0.4,0.1,0.7,0.4,1,0.7
				c0.3,0.3,0.5,0.7,0.7,1.2c0.2,0.5,0.3,1.1,0.3,1.8c0,0.8-0.1,1.5-0.3,2c-0.2,0.5-0.5,1-0.8,1.3c-0.3,0.3-0.7,0.5-1.1,0.7
				c-0.4,0.1-0.8,0.2-1.2,0.2c-0.4,0-0.7,0-0.9-0.1c-0.3-0.1-0.5-0.2-0.7-0.3c-0.2-0.1-0.3-0.2-0.4-0.3c-0.1-0.1-0.2-0.2-0.2-0.2
				v4.3H94z M99.6,102c0-0.4,0-0.9-0.1-1.3c-0.1-0.4-0.2-0.7-0.4-1c-0.2-0.3-0.4-0.5-0.8-0.7c-0.3-0.2-0.7-0.3-1.2-0.3
				c-0.5,0-0.9,0.1-1.3,0.3c-0.4,0.2-0.6,0.4-0.8,0.6C95,99.7,95,99.8,95,100v4.4c0.1,0.1,0.2,0.2,0.3,0.3c0.1,0.1,0.3,0.2,0.5,0.3
				c0.2,0.1,0.4,0.2,0.6,0.3c0.2,0.1,0.5,0.1,0.8,0.1c0.8,0,1.4-0.3,1.9-0.8C99.4,103.9,99.6,103.1,99.6,102z"/>
			<path class="st1" d="M102.9,94c0.1,0,0.1,0,0.1,0c0,0,0,0,0.1,0c0.1,0,0.1,0,0.2,0c0.1,0,0.2,0.1,0.3,0.1
				c0.1,0.1,0.2,0.1,0.2,0.3c0.1,0.1,0.1,0.3,0.1,0.5v9.5c0,0.5,0.1,0.8,0.2,0.9s0.4,0.2,0.7,0.3v0.4c-0.1,0-0.2,0.1-0.4,0.1
				c-0.1,0-0.2,0-0.3,0c-0.3,0-0.5-0.1-0.6-0.2c-0.2-0.1-0.3-0.2-0.3-0.4c-0.1-0.2-0.1-0.3-0.1-0.5c0-0.2,0-0.4,0-0.6V94z"/>
			<path class="st1" d="M113,105.8c-0.2,0.1-0.4,0.1-0.6,0.1c-0.3,0-0.6-0.1-0.9-0.2c-0.2-0.2-0.4-0.4-0.4-0.8
				c-0.3,0.3-0.7,0.6-1.1,0.8c-0.4,0.2-1,0.3-1.6,0.3c-0.3,0-0.5,0-0.8-0.1c-0.3-0.1-0.5-0.2-0.8-0.3c-0.2-0.2-0.4-0.4-0.6-0.7
				c-0.2-0.3-0.2-0.7-0.2-1.1c0-0.6,0.2-1,0.5-1.4c0.3-0.4,0.7-0.6,1.1-0.8c0.4-0.2,0.9-0.3,1.4-0.4c0.5-0.1,1-0.1,1.4-0.1
				c0.1,0,0.3,0,0.4,0c0.1,0,0.2,0,0.4,0v-0.4c0-0.3,0-0.5-0.1-0.7c-0.1-0.2-0.2-0.4-0.3-0.6c-0.1-0.2-0.3-0.3-0.6-0.4
				c-0.3-0.1-0.6-0.1-1-0.1c-0.5,0-1,0.1-1.4,0.2c-0.4,0.1-0.7,0.3-0.9,0.5h-0.2c-0.2-0.2-0.2-0.4-0.2-0.6c0-0.1,0-0.2,0.1-0.2
				c0.1-0.1,0.2-0.1,0.3-0.2c0.3-0.2,0.7-0.3,1.1-0.4c0.4-0.1,0.9-0.1,1.3-0.1c0.5,0,1,0.1,1.4,0.2c0.4,0.1,0.7,0.3,0.9,0.5
				c0.2,0.2,0.4,0.5,0.5,0.9c0.1,0.4,0.1,0.8,0.1,1.2v3.3c0,0.3,0,0.6,0.1,0.7c0,0.2,0.1,0.3,0.2,0.4c0.1,0.1,0.2,0.2,0.3,0.2
				c0.1,0,0.2,0,0.4,0.1V105.8z M111.1,101.7c-0.1,0-0.1,0-0.2,0c-0.1,0-0.1,0-0.2,0c-0.4,0-0.9,0-1.3,0.1c-0.4,0.1-0.8,0.2-1.2,0.3
				c-0.4,0.2-0.7,0.4-0.9,0.6c-0.2,0.3-0.3,0.6-0.3,1c0,0.2,0,0.4,0.1,0.6c0.1,0.2,0.1,0.3,0.3,0.5c0.1,0.1,0.3,0.3,0.5,0.3
				c0.2,0.1,0.5,0.1,0.8,0.1c0.3,0,0.7-0.1,1-0.2c0.3-0.1,0.6-0.2,0.8-0.4c0.2-0.1,0.4-0.3,0.6-0.4c0.1-0.2,0.2-0.3,0.2-0.4V101.7z"
				/>
			<path class="st1" d="M120.1,104.3c0.1,0.1,0.1,0.1,0.2,0.2c0.1,0.1,0.1,0.2,0.1,0.3c0,0.1-0.1,0.3-0.3,0.5
				c-0.2,0.2-0.5,0.3-0.9,0.5c-0.4,0.2-0.9,0.3-1.4,0.3c-0.3,0-0.7,0-1.1-0.1c-0.4-0.1-0.8-0.3-1.2-0.6c-0.4-0.3-0.7-0.7-0.9-1.2
				c-0.3-0.5-0.4-1.2-0.4-2.1c0-0.6,0.1-1,0.2-1.5c0.1-0.4,0.3-0.8,0.5-1.1c0.2-0.3,0.4-0.6,0.7-0.8c0.3-0.2,0.5-0.4,0.8-0.5
				c0.3-0.1,0.5-0.2,0.8-0.2c0.3,0,0.5-0.1,0.7-0.1c0.6,0,1,0.1,1.4,0.2c0.4,0.2,0.7,0.3,0.9,0.5c0.1,0.1,0.2,0.2,0.2,0.3
				c0,0.1,0.1,0.2,0.1,0.2c0,0.1,0,0.2-0.1,0.3c-0.1,0.1-0.1,0.2-0.2,0.3h-0.2c-0.2-0.3-0.5-0.6-0.8-0.7c-0.3-0.2-0.8-0.3-1.3-0.3
				c-0.5,0-0.9,0.1-1.2,0.3c-0.3,0.2-0.6,0.4-0.8,0.7c-0.2,0.3-0.4,0.6-0.5,1c-0.1,0.4-0.2,0.8-0.2,1.3c0,0.5,0.1,0.9,0.2,1.3
				c0.1,0.4,0.3,0.8,0.5,1.1c0.2,0.3,0.5,0.5,0.8,0.7c0.3,0.2,0.7,0.3,1.2,0.3c0.4,0,0.7-0.1,0.9-0.2c0.3-0.1,0.5-0.2,0.7-0.3
				C119.8,104.7,120,104.5,120.1,104.3z"/>
			<path class="st1" d="M128.1,104.9c0,0.1-0.1,0.2-0.2,0.4c-0.1,0.1-0.3,0.3-0.5,0.4c-0.2,0.1-0.5,0.2-0.8,0.3
				c-0.3,0.1-0.7,0.1-1.1,0.1c-0.5,0-1-0.1-1.5-0.2c-0.5-0.2-0.8-0.4-1.2-0.7c-0.3-0.3-0.6-0.8-0.8-1.3c-0.2-0.5-0.3-1.2-0.3-1.9
				c0-0.7,0.1-1.3,0.3-1.8c0.2-0.5,0.5-0.9,0.8-1.2c0.3-0.3,0.7-0.6,1.1-0.7c0.4-0.2,0.9-0.2,1.3-0.2c0.5,0,1,0.1,1.4,0.3
				c0.4,0.2,0.7,0.4,1,0.8c0.2,0.3,0.4,0.7,0.5,1.1c0.1,0.4,0.2,0.8,0.2,1.3c0,0.3,0,0.6-0.1,0.9h-5.5c0,0.5,0.1,0.9,0.2,1.3
				c0.1,0.4,0.3,0.7,0.5,1c0.2,0.3,0.5,0.5,0.8,0.6c0.3,0.2,0.7,0.2,1.2,0.2c0.3,0,0.6,0,0.9-0.1c0.3-0.1,0.5-0.2,0.7-0.3
				c0.2-0.1,0.3-0.2,0.5-0.3c0.1-0.1,0.2-0.2,0.3-0.3c0.1,0.1,0.2,0.2,0.3,0.3C128,104.8,128.1,104.8,128.1,104.9z M127.3,101.4
				c0-0.4,0-0.7-0.1-1c-0.1-0.3-0.2-0.6-0.4-0.9c-0.2-0.2-0.4-0.4-0.7-0.6c-0.3-0.1-0.6-0.2-1.1-0.2c-0.7,0-1.3,0.2-1.7,0.7
				c-0.4,0.5-0.7,1.1-0.7,2H127.3z"/>
		</g>
	</g>
	<g>
		<linearGradient id="SVGID_2_" gradientUnits="userSpaceOnUse" x1="0" y1="73.0884" x2="19.1361" y2="73.0884">
			<stop  offset="0" style="stop-color:#4478B1"/>
			<stop  offset="4.571825e-02" style="stop-color:#3F6CA2"/>
			<stop  offset="0.1353" style="stop-color:#385B8C"/>
			<stop  offset="0.2403" style="stop-color:#324D7B"/>
			<stop  offset="0.3686" style="stop-color:#2E436F"/>
			<stop  offset="0.5453" style="stop-color:#2C3E68"/>
			<stop  offset="1" style="stop-color:#2B3C66"/>
		</linearGradient>
		<path class="st2" d="M7,74.4c-0.6-0.3-0.9-0.6-1.2-0.8v-8.8c0-0.5,0.2-1,0.7-1.4C7,62.9,7.8,62.7,9,62.7c0.8,0,1.4,0.1,2,0.4
			c0.5,0.3,1,0.7,1.3,1.2c0.3,0.5,0.5,1.1,0.7,1.9c0.1,0.7,0.2,1.5,0.2,2.3c0,2-0.3,3.5-1,4.6c-0.7,1.1-1.7,1.7-3.1,1.7
			C8.3,74.8,7.6,74.7,7,74.4 M7.7,59.3c-0.9,0.5-1.6,1.1-2.1,1.6c-0.2-0.7-0.6-1.2-1.2-1.5c-0.6-0.3-1.4-0.5-2.3-0.5
			c-0.3,0-0.6,0-0.8,0c-0.2,0-0.4,0-0.6,0.1c-0.2,0-0.4,0.1-0.5,0.1v28.6c0,0,5.6,0.6,5.6-2.9v-7.5c0.1,0.1,0.2,0.2,0.4,0.5
			c0.2,0.2,0.5,0.4,0.9,0.7c0.4,0.2,0.9,0.4,1.5,0.6c0.6,0.2,1.3,0.3,2.1,0.3c1,0,1.9-0.2,2.9-0.5c1-0.3,1.8-0.9,2.6-1.7
			c0.8-0.8,1.4-1.9,1.9-3.3c0.5-1.4,0.7-3.2,0.7-5.3c0-1.8-0.2-3.4-0.6-4.7c-0.4-1.3-1-2.3-1.7-3.1c-0.7-0.8-1.5-1.3-2.5-1.7
			c-0.9-0.3-1.9-0.5-2.9-0.5C9.8,58.5,8.6,58.8,7.7,59.3"/>
		<linearGradient id="SVGID_3_" gradientUnits="userSpaceOnUse" x1="20.8678" y1="68.8305" x2="39.6918" y2="68.8305">
			<stop  offset="0" style="stop-color:#4478B1"/>
			<stop  offset="4.571825e-02" style="stop-color:#3F6CA2"/>
			<stop  offset="0.1353" style="stop-color:#385B8C"/>
			<stop  offset="0.2403" style="stop-color:#324D7B"/>
			<stop  offset="0.3686" style="stop-color:#2E436F"/>
			<stop  offset="0.5453" style="stop-color:#2C3E68"/>
			<stop  offset="1" style="stop-color:#2B3C66"/>
		</linearGradient>
		<path class="st3" d="M27,74.6c-0.4-0.5-0.7-1.2-0.7-2c0-0.7,0.2-1.3,0.5-1.7c0.3-0.4,0.8-0.8,1.3-1.1c0.5-0.3,1.1-0.5,1.8-0.6
			c0.7-0.1,1.4-0.2,2-0.2c0.2,0,0.4,0,0.6,0h0.6v4.2c0,0.2-0.1,0.5-0.3,0.7c-0.2,0.3-0.5,0.5-0.8,0.7c-0.4,0.2-0.8,0.4-1.2,0.5
			c-0.5,0.1-1,0.2-1.5,0.2C28.2,75.4,27.5,75.2,27,74.6 M27.3,58.8c-1,0.2-1.8,0.4-2.6,0.7c-0.7,0.3-1.3,0.6-1.8,1
			c-0.4,0.4-0.6,0.7-0.6,1.1c0,0.3,0.1,0.7,0.4,1.3c0.2,0.6,0.8,1.3,1.5,1c1-0.5,0.6-0.3,1.7-0.7c1.2-0.4,2.4-0.6,3.6-0.6
			c1.3,0,2.2,0.2,2.7,0.7c0.6,0.4,0.8,1.2,0.8,2.3v0.8h-0.9c-0.3,0-0.6,0-1,0c-1,0.1-2.1,0.2-3.3,0.4c-1.2,0.2-2.3,0.5-3.3,1
			c-1,0.5-1.9,1.2-2.5,2.1c-0.7,0.9-1,2-1,3.4c0,1.1,0.2,2.1,0.6,2.9c0.4,0.8,0.9,1.4,1.5,1.9c0.6,0.5,1.3,0.8,2,1
			c0.7,0.2,1.5,0.3,2.2,0.3c1.4,0,2.6-0.2,3.6-0.7c1-0.4,1.8-1,2.4-1.6c0.1,0.7,0.5,1.3,1,1.6c0.5,0.4,1.3,0.6,2.3,0.6
			c0.5,0,0.9,0,1.3-0.1c0.4-0.1,0.9-0.2,1.4-0.4c-0.6-1-1-2.6-1-4.8v-7.8c0-1.3-0.1-2.4-0.4-3.3c-0.3-1-0.7-1.7-1.4-2.4
			c-0.6-0.6-1.5-1.1-2.5-1.4c-1-0.3-2.3-0.5-3.8-0.5C29.3,58.5,28.2,58.6,27.3,58.8"/>
		<linearGradient id="SVGID_4_" gradientUnits="userSpaceOnUse" x1="40.7144" y1="68.9128" x2="57.9886" y2="68.9128">
			<stop  offset="0" style="stop-color:#4478B1"/>
			<stop  offset="4.571825e-02" style="stop-color:#3F6CA2"/>
			<stop  offset="0.1353" style="stop-color:#385B8C"/>
			<stop  offset="0.2403" style="stop-color:#324D7B"/>
			<stop  offset="0.3686" style="stop-color:#2E436F"/>
			<stop  offset="0.5453" style="stop-color:#2C3E68"/>
			<stop  offset="1" style="stop-color:#2B3C66"/>
		</linearGradient>
		<path class="st4" d="M47.8,58.9c-1.1,0.3-2.2,0.8-3.2,1.6c-1,0.8-1.9,1.8-2.6,3.1c-0.7,1.3-1,3-1,5.1c0,2.2,0.3,4,1,5.4
			c0.7,1.4,1.5,2.4,2.5,3.2c1,0.8,2.1,1.3,3.2,1.6c1.2,0.3,2.2,0.4,3.2,0.4c1.5,0,2.7-0.2,3.7-0.5c1-0.3,1.7-0.7,2.2-1.1
			c0.4-0.3,0.6-0.5,0.7-0.8c0.1-0.3,0.2-0.5,0.2-0.8c0-0.4-0.2-1-0.5-1.6c-0.3-0.6-0.6-1.1-0.9-1.4c-0.1,0.2-0.3,0.4-0.6,0.6
			c-0.3,0.2-0.6,0.5-1,0.7c-0.4,0.2-0.8,0.4-1.3,0.5c-0.5,0.1-1,0.2-1.7,0.2c-0.9,0-1.7-0.2-2.4-0.5c-0.6-0.3-1.2-0.8-1.5-1.4
			c-0.4-0.6-0.7-1.3-0.8-2c-0.2-0.8-0.2-1.6-0.2-2.5c0-1.7,0.4-3.2,1.2-4.3c0.8-1.1,2.1-1.7,3.9-1.7c1,0,2,0.2,2.9,0.7
			c0.9,0.5,1.5,0.9,1.9,1.4c0.4-0.5,0.7-1,0.9-1.5c0.3-0.6,0.4-1,0.4-1.4c0-0.4-0.1-0.8-0.3-1.1c-0.2-0.3-0.6-0.6-1.1-0.9
			c-0.6-0.4-1.4-0.7-2.4-1c-1-0.2-2-0.4-3.1-0.4C49.9,58.5,48.9,58.6,47.8,58.9"/>
		<linearGradient id="SVGID_5_" gradientUnits="userSpaceOnUse" x1="60.0094" y1="68.9746" x2="66.0456" y2="68.9746">
			<stop  offset="0" style="stop-color:#4478B1"/>
			<stop  offset="4.571825e-02" style="stop-color:#3F6CA2"/>
			<stop  offset="0.1353" style="stop-color:#385B8C"/>
			<stop  offset="0.2403" style="stop-color:#324D7B"/>
			<stop  offset="0.3686" style="stop-color:#2E436F"/>
			<stop  offset="0.5453" style="stop-color:#2C3E68"/>
			<stop  offset="1" style="stop-color:#2B3C66"/>
		</linearGradient>
		<path class="st5" d="M60.8,59c-0.4,0-0.6,0.1-0.6,0.1v16.5c0,0.7,0.1,1.3,0.3,1.7c0.2,0.4,0.4,0.8,0.7,1.1
			c0.3,0.3,0.7,0.4,1.1,0.5c0.4,0.1,0.9,0.1,1.5,0.1c0.4,0,0.9,0,1.2,0c0.4,0,0.6-0.1,0.7-0.1V62.2c0-0.7-0.1-1.2-0.3-1.7
			c-0.2-0.4-0.5-0.8-0.9-1c-0.4-0.2-0.8-0.4-1.2-0.5c-0.4-0.1-0.9-0.1-1.3-0.1C61.7,58.9,61.2,58.9,60.8,59"/>
		<linearGradient id="SVGID_6_" gradientUnits="userSpaceOnUse" x1="69.8839" y1="64.0179" x2="87.9833" y2="64.0179">
			<stop  offset="0" style="stop-color:#4478B1"/>
			<stop  offset="4.571825e-02" style="stop-color:#3F6CA2"/>
			<stop  offset="0.1353" style="stop-color:#385B8C"/>
			<stop  offset="0.2403" style="stop-color:#324D7B"/>
			<stop  offset="0.3686" style="stop-color:#2E436F"/>
			<stop  offset="0.5453" style="stop-color:#2C3E68"/>
			<stop  offset="1" style="stop-color:#2B3C66"/>
		</linearGradient>
		<path class="st6" d="M73.2,50.5c-1.5,1-2.5,2.5-2.9,4.3c-0.2,0.9-0.3,1.9-0.3,2.9v21.1c0,0,5.6,0.5,5.6-3.3V63.2h1.4
			c4.8,0,5.1-3.6,5.1-3.6v16c0,0.7,0.1,1.3,0.3,1.7c0.2,0.4,0.5,0.8,0.9,1.1c0.4,0.3,0.8,0.4,1.2,0.5C85,79,85.4,79,85.9,79
			c0.4,0,0.9,0,1.3-0.1c0.4,0,0.6-0.1,0.6-0.1V59H75.7v-1.4c0-1.6,0.3-2.7,1.1-3.3c0.7-0.6,1.7-0.9,3-0.9c1.2,0,2.2,0.2,3.2,0.6
			c1,0.4,1.7,0.8,2.1,1.3c0.4-0.4,0.7-0.9,1-1.5c0.3-0.6,0.4-1.1,0.4-1.6c0-0.8-0.5-1.4-1.5-1.9c-0.7-0.4-1.6-0.7-2.6-0.9
			c-1-0.2-2.1-0.3-3.1-0.3C76.8,49,74.8,49.5,73.2,50.5"/>
		<linearGradient id="SVGID_7_" gradientUnits="userSpaceOnUse" x1="90.4368" y1="68.9128" x2="107.7099" y2="68.9128">
			<stop  offset="0" style="stop-color:#4478B1"/>
			<stop  offset="4.571825e-02" style="stop-color:#3F6CA2"/>
			<stop  offset="0.1353" style="stop-color:#385B8C"/>
			<stop  offset="0.2403" style="stop-color:#324D7B"/>
			<stop  offset="0.3686" style="stop-color:#2E436F"/>
			<stop  offset="0.5453" style="stop-color:#2C3E68"/>
			<stop  offset="1" style="stop-color:#2B3C66"/>
		</linearGradient>
		<path class="st7" d="M97.5,58.9c-1.1,0.3-2.2,0.8-3.2,1.6c-1,0.8-1.9,1.8-2.6,3.1c-0.7,1.3-1,3-1,5.1c0,2.2,0.3,4,1,5.4
			c0.7,1.4,1.5,2.4,2.5,3.2c1,0.8,2.1,1.3,3.2,1.6c1.2,0.3,2.2,0.4,3.2,0.4c1.5,0,2.7-0.2,3.7-0.5c1-0.3,1.7-0.7,2.2-1.1
			c0.4-0.3,0.6-0.5,0.7-0.8c0.1-0.3,0.2-0.5,0.2-0.8c0-0.4-0.2-1-0.5-1.6c-0.3-0.6-0.6-1.1-0.9-1.4c-0.1,0.2-0.3,0.4-0.6,0.6
			c-0.3,0.2-0.6,0.5-1,0.7c-0.4,0.2-0.8,0.4-1.3,0.5c-0.5,0.1-1,0.2-1.6,0.2c-0.9,0-1.7-0.2-2.4-0.5c-0.6-0.3-1.2-0.8-1.6-1.4
			c-0.4-0.6-0.7-1.3-0.8-2c-0.2-0.8-0.2-1.6-0.2-2.5c0-1.7,0.4-3.2,1.2-4.3c0.8-1.1,2.1-1.7,3.9-1.7c1,0,2,0.2,2.9,0.7
			c0.9,0.5,1.5,0.9,1.9,1.4c0.4-0.5,0.7-1,0.9-1.5c0.2-0.6,0.4-1,0.4-1.4c0-0.4-0.1-0.8-0.3-1.1c-0.2-0.3-0.6-0.6-1.1-0.9
			c-0.6-0.4-1.4-0.7-2.4-1c-1-0.2-2-0.4-3.1-0.4C99.7,58.5,98.6,58.6,97.5,58.9"/>
		<linearGradient id="SVGID_8_" gradientUnits="userSpaceOnUse" x1="108.9032" y1="68.8722" x2="128.7401" y2="68.8722">
			<stop  offset="0" style="stop-color:#4478B1"/>
			<stop  offset="4.571825e-02" style="stop-color:#3F6CA2"/>
			<stop  offset="0.1353" style="stop-color:#385B8C"/>
			<stop  offset="0.2403" style="stop-color:#324D7B"/>
			<stop  offset="0.3686" style="stop-color:#2E436F"/>
			<stop  offset="0.5453" style="stop-color:#2C3E68"/>
			<stop  offset="1" style="stop-color:#2B3C66"/>
		</linearGradient>
		<path class="st8" d="M116.8,74.5c-0.5-0.4-1-0.8-1.3-1.4c-0.3-0.6-0.5-1.3-0.6-2c-0.1-0.7-0.2-1.5-0.2-2.2c0-0.7,0.1-1.5,0.2-2.2
			c0.1-0.7,0.4-1.4,0.7-1.9c0.3-0.6,0.7-1,1.3-1.4c0.5-0.4,1.2-0.5,2-0.5c0.8,0,1.5,0.2,2,0.5c0.5,0.3,0.9,0.8,1.2,1.3
			c0.3,0.6,0.5,1.2,0.6,1.9c0.1,0.7,0.2,1.5,0.2,2.2c0,0.8-0.1,1.5-0.2,2.3c-0.1,0.7-0.3,1.4-0.6,2c-0.3,0.6-0.7,1.1-1.3,1.4
			c-0.5,0.4-1.2,0.5-2,0.5C118,75,117.4,74.9,116.8,74.5 M114.6,59.3c-1.2,0.6-2.3,1.3-3.1,2.3c-0.8,0.9-1.4,2.1-1.8,3.3
			c-0.4,1.3-0.6,2.6-0.6,4c0,1.4,0.2,2.7,0.5,3.9c0.4,1.3,0.9,2.4,1.7,3.3c0.8,0.9,1.8,1.7,3,2.3c1.2,0.6,2.7,0.8,4.5,0.8
			c1.8,0,3.3-0.3,4.5-0.9c1.2-0.6,2.2-1.4,3-2.3c0.8-1,1.3-2.1,1.7-3.3c0.3-1.3,0.5-2.6,0.5-4c0-1.4-0.2-2.7-0.5-3.9
			c-0.3-1.2-0.9-2.3-1.6-3.3c-0.8-0.9-1.7-1.7-3-2.2c-1.2-0.5-2.7-0.8-4.4-0.8C117.3,58.5,115.9,58.8,114.6,59.3"/>
		<linearGradient id="SVGID_9_" gradientUnits="userSpaceOnUse" x1="60.2252" y1="52.8889" x2="67.5293" y2="52.8889">
			<stop  offset="0" style="stop-color:#4478B1"/>
			<stop  offset="4.571825e-02" style="stop-color:#3F6CA2"/>
			<stop  offset="0.1353" style="stop-color:#385B8C"/>
			<stop  offset="0.2403" style="stop-color:#324D7B"/>
			<stop  offset="0.3686" style="stop-color:#2E436F"/>
			<stop  offset="0.5453" style="stop-color:#2C3E68"/>
			<stop  offset="1" style="stop-color:#2B3C66"/>
		</linearGradient>
		<path class="st9" d="M64.2,49.5c-1,0-1.9,0.4-2.5,1.2v0l0,0c0,0,0,0,0,0c0,0,0,0,0,0l0,0c-0.8,1-1.2,2.2-1.2,3.5
			c0,0.3,0,0.5,0.1,0.8l0,0c0,0.5,0.4,1,0.9,1.1l0,0c0.4,0.1,0.8,0.1,1.2,0.1c1.1,0,2.1-0.3,3-0.8l0,0c1-0.6,1.6-1.6,1.6-2.8
			C67.3,50.9,65.9,49.5,64.2,49.5"/>
	</g>
	<g>
		<g>
			<defs>
				<path id="SVGID_10_" d="M97.9,4.6c-0.1,0-0.1,0.1-0.2,0.1c-0.1,0-0.1,0.1-0.2,0.1h0c-2.4,1.9-3.9,4.7-3.9,7.8
					c0,3,1.4,5.7,3.6,7.5h0c2.3,2,5.1,3.4,8.2,4.2c-1.5-0.5-2.5-1.8-2.6-3.4l0,0c-0.1-0.9-0.2-1.8-0.2-2.6c0-4.2,1.3-8.2,3.9-11.5
					l0,0c0,0,0,0,0,0c0,0,0,0,0,0l0.1-0.1v0c2-2.5,5-4,8.2-4c2,0,3.8,0.5,5.4,1.5c-3.1-2.1-6.8-3.3-10.8-3.3
					C105.1,0.8,101.1,2.2,97.9,4.6"/>
			</defs>
			<clipPath id="SVGID_11_">
				<use xlink:href="#SVGID_10_"  style="overflow:visible;"/>
			</clipPath>
			<g class="st10">
				<g>
					<defs>
						<rect id="SVGID_12_" x="92.9" y="0" width="27.5" height="24.5"/>
					</defs>
					<clipPath id="SVGID_13_">
						<use xlink:href="#SVGID_12_"  style="overflow:visible;"/>
					</clipPath>
					<g class="st11">
						<defs>
							<rect id="SVGID_14_" x="92.9" y="0" width="27.5" height="24.5"/>
						</defs>
						<clipPath id="SVGID_15_">
							<use xlink:href="#SVGID_14_"  style="overflow:visible;"/>
						</clipPath>
						<g style="clip-path:url(#SVGID_15_);">
							
								<image style="overflow:visible;" width="116" height="103" xlink:href="BCF93EFE.jpg"  transform="matrix(0.24 0 0 0.24 92.7399 -0.1051)">
							</image>
						</g>
					</g>
				</g>
			</g>
		</g>
		<g>
			<path class="st1" d="M114.8,2.6c-3.2,0-6.2,1.5-8.2,4v0l-0.1,0.1c0,0,0,0,0,0c0,0,0,0,0,0l0,0c-2.5,3.4-3.9,7.3-3.9,11.5
				c0,0.9,0.1,1.8,0.2,2.6l0,0c0.1,1.7,1.4,3.1,3.1,3.5l0,0c1.3,0.3,2.6,0.4,3.9,0.4c3.5,0,7-1,10-2.8l0,0c3.3-1.8,5.4-5.3,5.4-9.1
				C125.2,7.2,120.5,2.6,114.8,2.6"/>
		</g>
		<g>
			<defs>
				<path id="SVGID_16_" d="M120.2,4.1C120.2,4.1,120.2,4.1,120.2,4.1C120.2,4.1,120.2,4.1,120.2,4.1 M106.6,6.6L106.6,6.6
					c0,0-0.5,0.7-0.6,0.8c1.7-1.8,4.4-2.6,6.8-2.6c4.8,0,10.1,4.2,10.1,10.2c0,1.9-0.3,5.2-3.2,7.1c3.4-1.8,5.3-5.5,5.3-9.1
					c0-3.8-2-7.1-5-8.9c0,0,0,0,0,0c-1.6-0.9-3.4-1.5-5.3-1.5C111.6,2.6,108.6,4,106.6,6.6"/>
			</defs>
			<clipPath id="SVGID_17_">
				<use xlink:href="#SVGID_16_"  style="overflow:visible;"/>
			</clipPath>
			
				<radialGradient id="SVGID_18_" cx="-14.337" cy="-1103.2987" r="0.4757" gradientTransform="matrix(22.7807 0 0 -22.7807 442.4136 -25122.3574)" gradientUnits="userSpaceOnUse">
				<stop  offset="0" style="stop-color:#CD611C"/>
				<stop  offset="0.681" style="stop-color:#C65B1E"/>
				<stop  offset="0.745" style="stop-color:#C25A1E"/>
				<stop  offset="0.8088" style="stop-color:#B6551E"/>
				<stop  offset="0.8726" style="stop-color:#A24E1D"/>
				<stop  offset="0.9363" style="stop-color:#86431C"/>
				<stop  offset="0.9996" style="stop-color:#62361B"/>
				<stop  offset="1" style="stop-color:#62361B"/>
			</radialGradient>
			<rect x="105.6" y="2.1" class="st12" width="20.1" height="20.4"/>
		</g>
		<g>
			<defs>
				<path id="SVGID_19_" d="M97.7,4.8C97.7,4.8,97.7,4.7,97.7,4.8C97.7,4.7,97.7,4.7,97.7,4.8C97.7,4.7,97.7,4.7,97.7,4.8L97.7,4.8
					C97.7,4.7,97.7,4.8,97.7,4.8"/>
			</defs>
			<clipPath id="SVGID_20_">
				<use xlink:href="#SVGID_19_"  style="overflow:visible;"/>
			</clipPath>
			
				<radialGradient id="SVGID_21_" cx="-6.2939" cy="-1057.7053" r="0.4963" gradientTransform="matrix(58.9359 0 0 -58.9359 488.219 -62323.1211)" gradientUnits="userSpaceOnUse">
				<stop  offset="0" style="stop-color:#4B83BC"/>
				<stop  offset="0.456" style="stop-color:#4B83BC"/>
				<stop  offset="0.5406" style="stop-color:#497FB6"/>
				<stop  offset="0.6569" style="stop-color:#4273A4"/>
				<stop  offset="0.7917" style="stop-color:#385F87"/>
				<stop  offset="0.9392" style="stop-color:#2A435F"/>
				<stop  offset="1" style="stop-color:#23364C"/>
			</radialGradient>
			<rect x="97.7" y="4.7" class="st13" width="0.1" height="0.1"/>
		</g>
		<g>
			<defs>
				<path id="SVGID_22_" d="M97.6,4.8c-4.5,3.5-7.3,8.9-7.3,15c0,10.6,8.6,19.1,19.1,19.1c10.6,0,19.1-8.6,19.1-19.1
					c0-5.7-2.5-10.9-6.5-14.4c2,1.9,3.2,4.5,3.2,7.5c0,0.2,0,0.5,0,0.7c0,0.1,0,0.2,0,0.2c0,0.2,0,0.3,0,0.4c0,0.1,0,0.2,0,0.3
					c0,0.1,0,0.3-0.1,0.4c0,0.1,0,0.2-0.1,0.3c0,0.1-0.1,0.2-0.1,0.4c0,0.1-0.1,0.2-0.1,0.3c0,0.1-0.1,0.2-0.1,0.4
					c0,0.1-0.1,0.2-0.1,0.3c0,0.1-0.1,0.2-0.1,0.3c0,0.1-0.1,0.2-0.1,0.3c0,0.1-0.1,0.2-0.1,0.3c0,0.1-0.1,0.2-0.1,0.3
					c-0.1,0.1-0.1,0.2-0.2,0.3c-0.1,0.1-0.1,0.2-0.2,0.3c-0.1,0.1-0.1,0.2-0.2,0.3c-0.1,0.1-0.1,0.2-0.2,0.3
					c-0.1,0.1-0.1,0.2-0.2,0.3c-0.1,0.1-0.1,0.2-0.2,0.3c-0.1,0.1-0.1,0.2-0.2,0.3c-0.1,0.1-0.1,0.2-0.2,0.2
					c-0.1,0.1-0.2,0.2-0.2,0.2c-0.1,0.1-0.2,0.2-0.2,0.2c-0.1,0.1-0.2,0.2-0.3,0.2c-0.1,0.1-0.2,0.2-0.2,0.2
					c-0.1,0.1-0.2,0.1-0.3,0.2c-0.1,0.1-0.2,0.1-0.3,0.2c-0.2,0.1-0.4,0.3-0.5,0.4c-0.2,0.1-0.4,0.3-0.6,0.4l0,0
					c-3,1.8-6.4,2.8-10,2.8c-1.3,0-2.6-0.1-3.9-0.4l0,0c-0.1,0-0.3-0.1-0.4-0.1c0,0,0,0,0,0c-0.2,0-0.4-0.1-0.6-0.1
					c-0.1,0-0.1,0-0.2-0.1c-0.2,0-0.3-0.1-0.5-0.1c-0.1,0-0.2-0.1-0.3-0.1c-0.2,0-0.3-0.1-0.5-0.2c-0.1,0-0.2-0.1-0.2-0.1
					c-0.2-0.1-0.4-0.2-0.6-0.2c-0.1,0-0.2-0.1-0.3-0.1c-0.1-0.1-0.3-0.1-0.4-0.2c-0.1,0-0.2-0.1-0.3-0.1c-0.2-0.1-0.3-0.2-0.5-0.2
					c-0.1-0.1-0.2-0.1-0.3-0.2c-0.1-0.1-0.2-0.1-0.4-0.2c-0.1-0.1-0.2-0.1-0.3-0.2c-0.1-0.1-0.2-0.1-0.3-0.2
					c-0.1-0.1-0.2-0.1-0.3-0.2c-0.2-0.1-0.3-0.2-0.5-0.3c-0.1-0.1-0.2-0.1-0.3-0.2c-0.1-0.1-0.2-0.1-0.3-0.2
					c-0.1-0.1-0.2-0.1-0.3-0.2c-0.1-0.1-0.2-0.2-0.3-0.2c-0.1-0.1-0.1-0.1-0.2-0.2h0c-0.1-0.1-0.3-0.2-0.4-0.3h0c0,0,0,0,0,0
					c-0.1-0.1-0.1-0.1-0.2-0.2c-0.1-0.1-0.1-0.1-0.2-0.2c-0.1-0.1-0.1-0.1-0.2-0.2c-0.1-0.1-0.1-0.1-0.2-0.2
					c-0.1-0.1-0.1-0.1-0.2-0.2c-0.1-0.1-0.1-0.1-0.2-0.2c-0.1-0.1-0.1-0.1-0.2-0.2c-0.1-0.1-0.1-0.1-0.2-0.2
					c-0.1-0.1-0.1-0.2-0.2-0.2c-0.1-0.1-0.1-0.1-0.2-0.2c-0.1-0.1-0.1-0.2-0.2-0.2c0-0.1-0.1-0.2-0.1-0.2c0-0.1-0.1-0.2-0.1-0.2
					c0-0.1-0.1-0.2-0.1-0.2c0-0.1-0.1-0.2-0.1-0.2c0-0.1-0.1-0.2-0.1-0.3c0-0.1-0.1-0.2-0.1-0.2c0-0.1-0.1-0.2-0.1-0.3
					c0-0.1-0.1-0.2-0.1-0.2c0-0.1-0.1-0.2-0.1-0.3c0-0.1-0.1-0.2-0.1-0.2c0-0.1-0.1-0.2-0.1-0.3c0-0.1,0-0.2-0.1-0.2
					c0-0.1,0-0.2-0.1-0.3c0-0.1,0-0.2,0-0.2c0-0.1,0-0.2-0.1-0.3c0-0.1,0-0.2,0-0.2c0-0.1,0-0.2,0-0.4c0-0.1,0-0.1,0-0.2
					c0-0.2,0-0.4,0-0.6c0-0.2,0-0.4,0-0.6c0-0.1,0-0.1,0-0.2c0-0.1,0-0.2,0-0.4c0-0.1,0-0.2,0-0.3c0-0.1,0-0.2,0-0.3
					c0-0.1,0-0.2,0.1-0.3c0-0.1,0-0.2,0.1-0.3c0-0.1,0.1-0.2,0.1-0.3c0-0.1,0-0.2,0.1-0.3c0-0.1,0.1-0.2,0.1-0.3
					c0-0.1,0.1-0.2,0.1-0.2c0-0.1,0.1-0.2,0.1-0.3c0-0.1,0.1-0.1,0.1-0.2c0-0.1,0.1-0.2,0.1-0.3c0-0.1,0.1-0.1,0.1-0.2
					c0.1-0.1,0.1-0.2,0.2-0.3C95,7.9,95,7.8,95,7.8c0.1-0.1,0.1-0.2,0.2-0.3c0-0.1,0.1-0.1,0.1-0.2c0.1-0.1,0.1-0.2,0.2-0.3
					c0-0.1,0.1-0.1,0.1-0.2c0.1-0.1,0.2-0.2,0.2-0.3c0,0,0.1-0.1,0.1-0.1c0.1-0.1,0.2-0.2,0.3-0.3c0,0,0.1-0.1,0.1-0.1
					c0.1-0.1,0.2-0.2,0.3-0.3c0,0,0.1-0.1,0.1-0.1c0.1-0.1,0.2-0.2,0.3-0.3c0,0,0.1-0.1,0.1-0.1C97.3,5.1,97.4,5,97.6,4.8
					C97.5,4.9,97.5,4.9,97.6,4.8L97.6,4.8z"/>
			</defs>
			<clipPath id="SVGID_23_">
				<use xlink:href="#SVGID_22_"  style="overflow:visible;"/>
			</clipPath>
			
				<radialGradient id="SVGID_24_" cx="-6.3408" cy="-1057.7814" r="0.4685" gradientTransform="matrix(58.76 0 0 -58.76 488.1547 -62142.4258)" gradientUnits="userSpaceOnUse">
				<stop  offset="0" style="stop-color:#5596D0"/>
				<stop  offset="0.456" style="stop-color:#4273AD"/>
				<stop  offset="0.5727" style="stop-color:#4171A9"/>
				<stop  offset="0.6815" style="stop-color:#3D699E"/>
				<stop  offset="0.7872" style="stop-color:#385D8B"/>
				<stop  offset="0.891" style="stop-color:#2F4C71"/>
				<stop  offset="0.9926" style="stop-color:#25364F"/>
				<stop  offset="1" style="stop-color:#24344C"/>
			</radialGradient>
			<rect x="89.6" y="4.3" class="st14" width="39.6" height="35.4"/>
		</g>
	</g>
</g>
</svg>
